<svg width="30" height="31" viewBox="0 0 30 31" fill="none" xmlns="http://www.w3.org/2000/svg">
<path fill-rule="evenodd" clip-rule="evenodd" d="M1.49903 21.5206H4.49318C5.31961 21.5216 5.98932 22.1913 5.9902 23.0177V29.505C5.9902 29.7806 5.76681 30.004 5.49119 30.004H0.500959C0.225345 30.004 0.00195312 29.7806 0.00195312 29.505V23.0177C0.00283032 22.1913 0.672596 21.5215 1.49903 21.5206ZM0.999965 29.006H4.99213V23.0177C4.99178 22.7423 4.76856 22.5191 4.49312 22.5187H1.49897C1.22353 22.5191 1.00032 22.7423 0.999965 23.0177V29.006Z" fill="#009FFD"/>
<path fill-rule="evenodd" clip-rule="evenodd" d="M9.4834 14.5343H12.4776C13.304 14.5352 13.9737 15.2049 13.9746 16.0314V29.5051C13.9746 29.7807 13.7512 30.0041 13.4756 30.0041H8.48533C8.20972 30.0041 7.98633 29.7807 7.98633 29.5051V16.0314C7.98721 15.205 8.65697 14.5352 9.4834 14.5343ZM8.98434 29.006H12.9765V16.0314C12.9762 15.756 12.7529 15.5328 12.4775 15.5324H9.48335C9.20791 15.5328 8.98469 15.756 8.98434 16.0314V29.006Z" fill="#009FFD"/>
<path fill-rule="evenodd" clip-rule="evenodd" d="M17.4678 17.5285H20.4619C21.2884 17.5294 21.9581 18.1991 21.9589 19.0255V29.5051C21.9589 29.7807 21.7356 30.0041 21.4599 30.0041H16.4697C16.1941 30.0041 15.9707 29.7807 15.9707 29.5051V19.0255C15.9716 18.1991 16.6413 17.5294 17.4678 17.5285ZM16.9688 29.006H20.9609V19.0255C20.9606 18.7501 20.7374 18.5269 20.4619 18.5265H17.4678C17.1923 18.5269 16.9691 18.7501 16.9688 19.0255V29.006Z" fill="#009FFD"/>
<path fill-rule="evenodd" clip-rule="evenodd" d="M25.4522 13.5363H28.4463C29.2727 13.5371 29.9424 14.2069 29.9433 15.0333V29.5051C29.9433 29.7807 29.7199 30.0041 29.4443 30.0041H24.4541C24.1785 30.0041 23.9551 29.7807 23.9551 29.5051V15.0333C23.956 14.2069 24.6257 13.5371 25.4522 13.5363ZM24.9531 29.006H28.9453V15.0333C28.9449 14.7579 28.7217 14.5347 28.4462 14.5343H25.4521C25.1767 14.5347 24.9534 14.7579 24.9531 15.0333V29.006Z" fill="#009FFD"/>
<path fill-rule="evenodd" clip-rule="evenodd" d="M24.7142 6.04023C25.6285 7.06924 27.1268 7.34187 28.3448 6.70082C29.5629 6.05977 30.1865 4.67041 29.8559 3.33421C29.5254 1.99801 28.3258 1.05977 26.9494 1.06058C25.9501 1.05982 25.0164 1.55795 24.4607 2.38842C23.9049 3.21889 23.8004 4.27199 24.1823 5.19544L21.2001 7.05947C20.6636 6.45123 19.9023 6.08795 19.0919 6.05345C18.2816 6.01895 17.4921 6.31632 16.9059 6.87678L13.6397 4.42713C14.3302 3.09152 13.923 1.45094 12.688 0.593274C11.453 -0.264386 9.77348 -0.0730414 8.76313 1.04047C7.75278 2.15398 7.72506 3.84415 8.69833 4.99017L4.51459 9.96199C3.17307 9.17263 1.45044 9.54286 0.551668 10.8137C-0.347104 12.0845 -0.122308 13.832 1.06892 14.834C2.26015 15.8359 4.02032 15.758 5.11839 14.6548C6.21646 13.5516 6.28605 11.791 5.27851 10.6045L9.46225 5.63269C10.611 6.31602 12.0745 6.14912 13.0399 5.22468L16.3061 7.67433C15.6704 8.90561 15.9629 10.4123 17.0131 11.3163C18.0634 12.2202 19.5968 12.2851 20.7197 11.4732C21.8427 10.6613 22.2616 9.18479 21.7323 7.90415L24.7142 6.04023ZM26.9494 2.05865C28.0518 2.05865 28.9455 2.95234 28.9455 4.05474C28.9442 5.15661 28.0513 6.04959 26.9494 6.05082C25.847 6.05082 24.9533 5.15713 24.9533 4.05474C24.9533 2.95234 25.8469 2.05865 26.9494 2.05865ZM1.00009 12.5382C1.00009 13.6406 1.89377 14.5343 2.99617 14.5343C4.09804 14.533 4.99097 13.6401 4.99225 12.5382C4.99225 11.4358 4.09857 10.5422 2.99617 10.5422C1.89377 10.5422 1.00009 11.4358 1.00009 12.5382ZM10.9806 5.05281C9.87816 5.05281 8.98448 4.15912 8.98448 3.05672C8.98448 1.95433 9.87816 1.06064 10.9806 1.06064C12.083 1.06064 12.9766 1.95433 12.9766 3.05672C12.9754 4.1586 12.0824 5.05158 10.9806 5.05281ZM16.9689 9.04503C16.9689 10.1474 17.8625 11.0411 18.9649 11.0411C20.0669 11.0399 20.9598 10.1469 20.961 9.04503C20.961 7.94263 20.0673 7.04895 18.9649 7.04895C17.8625 7.04895 16.9689 7.94263 16.9689 9.04503Z" fill="#009FFD"/>
</svg>
