<svg width="480" height="480" viewBox="0 0 480 480" fill="none" xmlns="http://www.w3.org/2000/svg">
<g clip-path="url(#clip0)">
<path d="M207.72 239.399L369.725 77.3934C387.369 59.7496 387.369 30.8775 369.725 13.2328C352.08 -4.41192 321.605 -4.41192 305.564 13.2328L109.875 207.319C101.856 215.338 97.0425 228.172 97.0425 239.399C97.0425 252.232 101.855 263.46 109.875 271.479L303.96 467.168C311.98 475.189 324.812 480.001 336.04 480.001C348.873 480.001 360.101 475.19 368.121 467.168C385.765 449.525 385.765 420.652 368.121 403.008L207.72 239.399ZM347.268 443.107C342.457 447.919 332.832 447.919 328.02 443.107L132.331 249.023C129.123 245.815 127.519 242.607 127.519 239.399C127.519 236.191 129.123 232.983 132.331 229.775L328.02 35.6896C329.624 32.4815 332.831 30.8784 337.644 30.8784C342.457 30.8784 344.061 32.4825 347.269 35.6896C352.08 40.5009 352.08 50.1253 347.269 54.9375L172.432 228.171C169.223 231.379 167.619 234.587 167.619 239.398C167.619 244.209 169.223 247.418 172.432 250.627L345.665 423.86C352.081 430.276 352.081 438.296 347.268 443.107Z" fill="#009FFD"/>
</g>
<defs>
<clipPath id="clip0">
<rect width="480" height="480" fill="white"/>
</clipPath>
</defs>
</svg>
