<svg width="30" height="31" viewBox="0 0 30 31" fill="none" xmlns="http://www.w3.org/2000/svg">
<path fill-rule="evenodd" clip-rule="evenodd" d="M23.7712 9.91525H29.428C29.7437 9.9156 29.9996 10.1715 30 10.4873V12.5847C29.9996 12.9005 29.7437 13.1564 29.428 13.1568H28.411V29.6822C28.411 29.9279 28.2118 30.1271 27.9661 30.1271H2.0339C1.78818 30.1271 1.58898 29.9279 1.58898 29.6822V9.91525H0.572034C0.256253 9.9149 0.000350284 9.659 0 9.34322V7.24576C0.000350284 6.92998 0.256253 6.67408 0.572034 6.67373H6.22881V3.17797H5.02119C4.70541 3.17762 4.4495 2.92171 4.44915 2.60593V0.572034C4.4495 0.256253 4.70541 0.000350284 5.02119 0H24.9788C25.2946 0.000350284 25.5505 0.256253 25.5508 0.572034V2.60593C25.5505 2.92171 25.2946 3.17762 24.9788 3.17797H23.7712V9.91525ZM24.661 0.889831H5.33898V2.28814H24.661V0.889831ZM0.889831 7.56356H6.22881V9.02542H0.889831V7.56356ZM6.22881 9.91525H2.47881V29.2373H6.22881V9.91525ZM7.11864 3.17797H22.8814V29.2373H17.8602V22.0551C17.8597 21.6691 17.547 21.3564 17.161 21.3559H12.9025C12.5166 21.3564 12.2038 21.6691 12.2034 22.0551V29.2373H7.11864V3.17797ZM13.0932 29.2373H16.9703V22.2458H13.0932V29.2373ZM27.5212 29.2373H23.7712V13.1568H27.5212V29.2373ZM23.7712 12.2669H29.1102V10.8051H23.7712V12.2669Z" fill="#009FFD"/>
<path fill-rule="evenodd" clip-rule="evenodd" d="M8.96185 11.6949H10.2966C10.6825 11.6954 10.9953 12.0081 10.9957 12.3941V13.9831C10.9953 14.369 10.6825 14.6817 10.2966 14.6822H8.96185C8.57591 14.6817 8.26315 14.369 8.2627 13.9831V12.3941C8.26315 12.0081 8.57591 11.6954 8.96185 11.6949ZM9.15253 13.7924H10.1059V12.5847H9.15253V13.7924Z" fill="#009FFD"/>
<path fill-rule="evenodd" clip-rule="evenodd" d="M8.96185 16.7161H10.2966C10.6825 16.7166 10.9953 17.0293 10.9957 17.4152V19.0042C10.9953 19.3902 10.6825 19.7029 10.2966 19.7034H8.96185C8.57591 19.7029 8.26315 19.3902 8.2627 19.0042V17.4152C8.26315 17.0293 8.57591 16.7166 8.96185 16.7161ZM9.15253 18.8136H10.1059V17.6059H9.15253V18.8136Z" fill="#009FFD"/>
<path fill-rule="evenodd" clip-rule="evenodd" d="M14.3007 11.6949H15.6355C16.0214 11.6954 16.3342 12.0081 16.3346 12.3941V13.9831C16.3342 14.369 16.0214 14.6817 15.6355 14.6822H14.3007C13.9148 14.6817 13.602 14.369 13.6016 13.9831V12.3941C13.602 12.0081 13.9148 11.6954 14.3007 11.6949ZM14.4914 13.7924H15.4448V12.5847H14.4914V13.7924Z" fill="#009FFD"/>
<path fill-rule="evenodd" clip-rule="evenodd" d="M14.3007 16.7161H15.6355C16.0214 16.7166 16.3342 17.0293 16.3346 17.4152V19.0042C16.3342 19.3902 16.0214 19.7029 15.6355 19.7034H14.3007C13.9148 19.7029 13.602 19.3902 13.6016 19.0042V17.4152C13.602 17.0293 13.9148 16.7166 14.3007 16.7161ZM14.4914 18.8136H15.4448V17.6059H14.4914V18.8136Z" fill="#009FFD"/>
<path fill-rule="evenodd" clip-rule="evenodd" d="M21.0383 14.6822H19.7035C19.3176 14.6817 19.0048 14.369 19.0044 13.9831V12.3941C19.0048 12.0081 19.3176 11.6954 19.7035 11.6949H21.0383C21.4242 11.6954 21.737 12.0081 21.7374 12.3941V13.9831C21.737 14.369 21.4242 14.6817 21.0383 14.6822ZM20.8476 12.5847H19.8942V13.7924H20.8476V12.5847Z" fill="#009FFD"/>
<path fill-rule="evenodd" clip-rule="evenodd" d="M21.0383 19.7034H19.7035C19.3176 19.7029 19.0048 19.3902 19.0044 19.0042V17.4152C19.0048 17.0293 19.3176 16.7166 19.7035 16.7161H21.0383C21.4242 16.7166 21.737 17.0293 21.7374 17.4152V19.0042C21.737 19.3902 21.4242 19.7029 21.0383 19.7034ZM20.8476 17.6059H19.8942V18.8136H20.8476V17.6059Z" fill="#009FFD"/>
<path fill-rule="evenodd" clip-rule="evenodd" d="M26.1862 17.6695H24.8515C24.4656 17.669 24.1528 17.3563 24.1523 16.9703V15.3814C24.1528 14.9954 24.4656 14.6827 24.8515 14.6822H26.1862C26.5722 14.6827 26.8849 14.9954 26.8854 15.3814V16.9703C26.8849 17.3563 26.5722 17.669 26.1862 17.6695ZM25.9956 15.572H25.0422V16.7797H25.9956V15.572Z" fill="#009FFD"/>
<path fill-rule="evenodd" clip-rule="evenodd" d="M3.68646 14.6822H5.0212C5.40715 14.6827 5.7199 14.9954 5.72036 15.3814V16.9703C5.7199 17.3563 5.40715 17.669 5.0212 17.6695H3.68646C3.30051 17.669 2.98776 17.3563 2.9873 16.9703V15.3814C2.98776 14.9954 3.30051 14.6827 3.68646 14.6822ZM3.87714 16.7797H4.83053V15.572H3.87714V16.7797Z" fill="#009FFD"/>
</svg>
