<svg width="356" height="221" viewBox="0 0 356 221" fill="none" xmlns="http://www.w3.org/2000/svg">
<path d="M5.61212 192.032C3.04412 192.032 1.84412 193.712 1.84412 196.256V204.944C1.84412 207.488 3.04412 209.168 5.61212 209.168C8.20412 209.168 9.40412 207.488 9.40412 204.944V202.856H7.62812V205.04C7.62812 206.552 7.02812 207.464 5.66012 207.464C4.31612 207.464 3.69212 206.552 3.69212 205.04V196.16C3.69212 194.648 4.31612 193.736 5.66012 193.736C7.02812 193.736 7.62812 194.648 7.62812 196.16V197.768H9.40412V196.256C9.40412 193.712 8.20412 192.032 5.61212 192.032ZM17.6213 201.248L19.4453 195.632V209H21.1253V192.2H19.0373L16.3493 200.096L14.8613 204.728V192.2H13.2053V209H15.1493L17.6213 201.248ZM28.7496 192.032C26.1816 192.032 24.9816 193.712 24.9816 196.256V204.944C24.9816 207.488 26.1816 209.168 28.7496 209.168C31.3416 209.168 32.5416 207.488 32.5416 204.944V202.856H30.7656V205.04C30.7656 206.552 30.1656 207.464 28.7976 207.464C27.4536 207.464 26.8296 206.552 26.8296 205.04V196.16C26.8296 194.648 27.4536 193.736 28.7976 193.736C30.1656 193.736 30.7656 194.648 30.7656 196.16V197.768H32.5416V196.256C32.5416 193.712 31.3416 192.032 28.7496 192.032ZM38.9108 209H40.7828V193.904H43.8788V192.2H35.8148V193.904H38.9108V209ZM53.3485 199.64H49.2445V193.904H54.2845V192.2H47.3725V209H54.2845V207.296H49.2445V201.32H53.3485V199.64ZM64.3129 208.976L66.9769 195.488V209H68.7529V192.2H66.1369L63.4729 205.616L60.7129 192.2H58.0969V209H59.7289V195.608L62.5129 208.976H64.3129ZM74.6794 205.616H78.9274L79.5754 209H81.4474L78.2314 192.2H75.5194L72.3034 209H74.0314L74.6794 205.616ZM74.9194 204.008L76.7674 194.312L78.6634 204.008H74.9194ZM95.875 205.304L99.475 192.2H97.531L96.019 198.032L95.035 202.256L93.883 198.032L92.179 192.2H90.307L94.171 204.584L93.787 205.688C93.475 206.96 92.827 207.416 91.387 207.344V209.024C94.435 209.168 95.299 207.824 95.875 205.304ZM108.775 201.56V209H110.623V192.2H108.775V199.208C108.583 200.48 107.887 201.176 106.759 201.176C105.439 201.176 104.695 200.168 104.695 198.752V192.2H102.823V198.896C102.823 201.152 103.903 202.88 106.159 202.88C107.167 202.88 108.175 202.424 108.775 201.56ZM120.652 199.64H116.548V193.904H121.588V192.2H114.676V209H121.588V207.296H116.548V201.32H120.652V199.64ZM127.992 209H129.864V193.904H132.96V192.2H124.896V193.904H127.992V209ZM138.35 205.616H142.598L143.246 209H145.118L141.902 192.2H139.19L135.974 209H137.702L138.35 205.616ZM138.59 204.008L140.438 194.312L142.334 204.008H138.59ZM162.785 211.304H164.609V207.344H163.337V192.2H156.593L155.945 204.896C155.897 205.928 155.777 206.696 155.201 207.344H154.121V211.304H155.921V209H162.785V211.304ZM157.769 204.872L158.321 193.904H161.441V207.344H157.001C157.529 206.792 157.697 206.072 157.769 204.872ZM171.923 193.904H175.139V209H177.011V192.2H170.171L169.715 204.92C169.667 206.528 169.403 207.32 167.843 207.32V209.024H168.155C170.723 209 171.443 207.488 171.539 204.824L171.923 193.904ZM185.456 201.824H186.776V209H188.648V192.2H184.904C182.264 192.2 181.16 193.544 181.16 196.04V197.408C181.16 199.256 181.808 200.408 183.224 200.864C181.712 201.32 181.136 202.568 181.136 204.368V206.984C181.136 207.728 181.088 208.424 180.8 209H182.696C182.912 208.52 183.008 208.088 183.008 206.96V204.32C183.008 202.424 183.896 201.824 185.456 201.824ZM184.952 193.904H186.776V200.12H185.36C183.896 200.12 183.008 199.64 183.008 197.816V196.208C183.008 194.696 183.56 193.904 184.952 193.904ZM202.251 192.2H198.483V209H202.347C204.963 209 206.187 207.584 206.187 205.064V203.648C206.187 201.8 205.563 200.504 203.931 200.048C205.395 199.592 205.899 198.488 205.899 196.712V195.92C205.899 193.448 204.867 192.2 202.251 192.2ZM201.795 199.328H200.355V193.904H202.203C203.547 193.904 204.051 194.624 204.051 196.112V197.096C204.051 198.848 203.283 199.328 201.795 199.328ZM202.347 207.296H200.355V201.032H201.987C203.595 201.032 204.339 201.656 204.339 203.528V205.016C204.339 206.576 203.715 207.296 202.347 207.296ZM211.878 205.616H216.126L216.774 209H218.646L215.43 192.2H212.718L209.502 209H211.23L211.878 205.616ZM212.118 204.008L213.966 194.312L215.862 204.008H212.118ZM224.079 192.2H222.207V209H234.231V192.2H232.383V207.296H229.167V192.2H227.295V207.296H224.079V192.2ZM244.228 199.64H240.124V193.904H245.164V192.2H238.252V209H245.164V207.296H240.124V201.32H244.228V199.64ZM250.873 193.904H255.721V192.2H249.025V209H250.873V193.904ZM259.511 196.256V204.944C259.511 207.488 260.783 209.168 263.351 209.168C265.943 209.168 267.215 207.488 267.215 204.944V196.256C267.215 193.688 265.943 192.032 263.351 192.032C260.783 192.032 259.511 193.688 259.511 196.256ZM261.359 205.04V196.16C261.359 194.648 262.007 193.736 263.351 193.736C264.719 193.736 265.343 194.648 265.343 196.16V205.04C265.343 206.576 264.719 207.464 263.351 207.464C262.007 207.464 261.359 206.576 261.359 205.04ZM280.75 199.136H278.782V193.904H284.014V192.2H276.934V209H280.846C283.486 209 284.71 207.536 284.71 204.92V203.072C284.71 200.384 283.366 199.136 280.75 199.136ZM280.846 207.296H278.782V200.816H280.75C282.118 200.816 282.838 201.32 282.838 202.952V205.04C282.838 206.6 282.214 207.296 280.846 207.296ZM293.059 201.248L294.883 195.632V209H296.563V192.2H294.475L291.787 200.096L290.299 204.728V192.2H288.643V209H290.587L293.059 201.248ZM304.235 192.032C301.667 192.032 300.491 193.664 300.491 196.232V197.288H302.219V196.16C302.219 194.648 302.843 193.736 304.187 193.736C305.555 193.736 306.155 194.6 306.155 196.328V197.096C306.155 198.56 305.339 199.4 304.091 199.4H303.203V201.08H303.995C305.411 201.08 306.155 201.944 306.155 203.576V204.896C306.155 206.576 305.555 207.464 304.187 207.464C302.843 207.464 302.219 206.552 302.219 205.04V203.312H300.467V204.944C300.467 207.488 301.667 209.168 304.235 209.168C306.827 209.168 308.027 207.488 308.027 204.944V203.624C308.027 201.944 307.379 200.648 305.963 200.168C307.331 199.664 308.027 198.416 308.027 196.688V196.256C308.027 193.712 306.827 192.032 304.235 192.032ZM313.816 201.44H317.944V209H319.816V192.2H317.944V199.76H313.816V192.2H311.944V209H313.816V201.44ZM329.817 199.64H325.713V193.904H330.753V192.2H323.841V209H330.753V207.296H325.713V201.32H329.817V199.64ZM338.214 192.032C335.646 192.032 334.446 193.712 334.446 196.256V204.944C334.446 207.488 335.646 209.168 338.214 209.168C340.806 209.168 342.006 207.488 342.006 204.944V202.856H340.23V205.04C340.23 206.552 339.63 207.464 338.262 207.464C336.918 207.464 336.294 206.552 336.294 205.04V196.16C336.294 194.648 336.918 193.736 338.262 193.736C339.63 193.736 340.23 194.648 340.23 196.16V197.768H342.006V196.256C342.006 193.712 340.806 192.032 338.214 192.032ZM347.703 205.616H351.951L352.599 209H354.471L351.255 192.2H348.543L345.327 209H347.055L347.703 205.616ZM347.943 204.008L349.791 194.312L351.687 204.008H347.943Z" fill="white"/>
<path fill-rule="evenodd" clip-rule="evenodd" d="M0 94H2.56361V80H0V94ZM16.6627 94H14.0991L6.40826 84.2936V94H3.84464V80H6.40826L14.0991 89.7064V80H16.6627V94ZM30.7633 82.8H25.6361V94H23.0725V82.8H17.9453V80H30.7633V82.8ZM44.8624 82.8H34.6095V85.6H42.2988V88.4H34.6095V91.2H44.8624V94H32.0459V80H44.8624V82.8ZM56.3994 94H46.145V80H48.7086V91.2H56.3994V94ZM67.9365 94H57.682V80H60.2456V91.2H67.9365V94ZM69.2175 94H71.7811V80H69.2175V94ZM85.8817 94H76.9083C74.3447 94 73.0637 92.6008 73.0637 89.8008V84.2008C73.0637 81.4008 74.3447 80 76.9083 80H85.8817V82.8H76.9083C76.0548 82.8 75.6273 83.2669 75.6273 84.2008V89.8008C75.6273 90.7347 76.0548 91.2 76.9083 91.2H83.3181V88.4H80.7545V85.6H85.8817V94ZM99.9808 82.8H89.7264V85.6H97.4172V88.4H89.7264V91.2H99.9808V94H87.1628V80H99.9808V82.8ZM114.081 94H111.518L103.827 84.2936V94H101.263V80H103.827L111.518 89.7064V80H114.081V94ZM128.181 82.8H123.055V94H120.49V82.8H115.364V80H128.181V82.8ZM150.614 94H148.049V85.2275L142.922 94L137.796 85.2275V94H135.232V80H137.796L142.922 88.7742L148.049 80H150.614V94ZM164.713 82.8H154.459V85.6H162.15V88.4H154.459V91.2H164.713V94H151.895V80H164.713V82.8ZM178.814 82.8H173.687V94H171.123V82.8H165.996V80H178.814V82.8ZM192.913 82.8H182.658V85.6H190.349V88.4H182.658V91.2H192.913V94H180.095V80H192.913V82.8ZM207.013 84.2008V85.6C207.013 88.4 205.731 89.8008 203.167 89.8008L207.013 94H203.382L199.536 89.8008H196.759V94H194.195V80H203.167C205.731 80 207.013 81.4008 207.013 84.2008ZM204.45 84.2008C204.45 83.2669 204.022 82.8 203.167 82.8H196.759V87.0008H203.167C204.022 87.0008 204.45 86.5339 204.45 85.6V84.2008ZM208.295 94H210.858V80H208.295V94ZM224.959 94H222.395L214.704 84.2936V94H212.141V80H214.704L222.395 89.7064V80H224.959V94ZM239.058 94H230.086C227.522 94 226.241 92.6008 226.241 89.8008V84.2008C226.241 81.4008 227.522 80 230.086 80H239.058V82.8H230.086C229.231 82.8 228.805 83.2669 228.805 84.2008V89.8008C228.805 90.7347 229.231 91.2 230.086 91.2H236.496V88.4H233.932V85.6H239.058V94ZM263.84 89.8008C263.84 92.6008 262.559 94 259.994 94H251.663V91.2H259.994C260.849 91.2 261.277 90.7347 261.277 89.8008C261.277 88.8669 260.849 88.4 259.994 88.4H254.869C252.305 88.4 251.022 87.0008 251.022 84.2008C251.022 81.4008 252.305 80 254.869 80H263.2V82.8H254.869C254.014 82.8 253.586 83.2669 253.586 84.2008C253.586 85.1331 254.014 85.6 254.869 85.6H259.994C262.559 85.6 263.84 87.0008 263.84 89.8008ZM277.577 84.2008C277.577 87.0008 276.296 88.4 273.732 88.4H272.451V94H269.888V88.4H268.605C266.041 88.4 264.759 87.0008 264.759 84.2008V80H267.322V84.2008C267.322 85.1331 267.75 85.6 268.605 85.6H273.732C274.587 85.6 275.013 85.1331 275.013 84.2008V80H277.577V84.2008ZM291.037 89.8008C291.037 92.6008 289.754 94 287.191 94H278.859V91.2H287.191C288.046 91.2 288.473 90.7347 288.473 89.8008C288.473 88.8669 288.046 88.4 287.191 88.4H282.064C279.5 88.4 278.219 87.0008 278.219 84.2008C278.219 81.4008 279.5 80 282.064 80H290.395V82.8H282.064C281.208 82.8 280.783 83.2669 280.783 84.2008C280.783 85.1331 281.208 85.6 282.064 85.6H287.191C289.754 85.6 291.037 87.0008 291.037 89.8008ZM305.136 82.8H300.009V94H297.445V82.8H292.318V80H305.136V82.8ZM319.237 82.8H308.982V85.6H316.673V88.4H308.982V91.2H319.237V94H306.419V80H319.237V82.8ZM335.899 94H333.337V85.2275L328.21 94L323.081 85.2275V94H320.518V80H323.081L328.21 88.7742L333.337 80H335.899V94ZM350 89.8008C350 92.6008 348.719 94 346.154 94H337.822V91.2H346.154C347.009 91.2 347.436 90.7347 347.436 89.8008C347.436 88.8669 347.009 88.4 346.154 88.4H341.028C338.463 88.4 337.182 87.0008 337.182 84.2008C337.182 81.4008 338.463 80 341.028 80H349.359V82.8H341.028C340.173 82.8 339.746 83.2669 339.746 84.2008C339.746 85.1331 340.173 85.6 341.028 85.6H346.154C348.719 85.6 350 87.0008 350 89.8008Z" fill="white"/>
<mask id="mask0" mask-type="alpha" maskUnits="userSpaceOnUse" x="1" y="1" width="354" height="174">
<path fill-rule="evenodd" clip-rule="evenodd" d="M1.1228 172.296H51.9851V104.14H1.1228V172.296ZM7.65434 12.8564H16.0133C16.6547 12.8564 17.1139 13.2174 17.3909 13.9411L17.4361 14.2974C17.4361 14.8855 17.1092 15.3191 16.457 15.6029C16.3356 15.6643 16.1737 15.6959 15.9682 15.6959H14.6856C13.9197 15.7053 13.2924 16.336 13.3017 17.1133V23.6862H13.3126V23.9921C13.3126 25.8636 13.68 27.6467 14.3447 29.2722C15.0342 30.9576 16.046 32.4775 17.3038 33.7514C18.5615 35.0253 20.0621 36.0501 21.7277 36.7502C23.3325 37.4234 25.0915 37.7939 26.9392 37.7939C28.7869 37.7939 30.5474 37.4234 32.1523 36.7502C33.8179 36.0501 35.3184 35.0253 36.5746 33.7514C37.8323 32.4775 38.8457 30.9576 39.5353 29.2722C40.0832 27.9321 40.4288 26.4847 40.5331 24.968C40.5346 24.9223 40.5393 24.8766 40.544 24.8324V17.1275V17.1259C40.544 17.107 40.544 17.4696 40.544 17.0675C40.544 16.6655 39.9182 15.6375 39.1446 15.6502H37.837C37.1848 15.6502 36.7256 15.3191 36.4563 14.6585L36.4143 14.3857V14.1634C36.4143 13.5564 36.7521 13.1181 37.4354 12.8564L37.7 12.8106H46.059C46.7004 12.8106 47.158 13.1717 47.4351 13.8938L47.4802 14.2517C47.4802 14.8398 47.1549 15.2733 46.5027 15.5571C46.3813 15.6186 46.2178 15.6502 46.0139 15.6502H44.7312C43.9654 15.658 43.3381 16.2903 43.3474 17.0675V24.6842C43.3552 24.7741 43.3568 24.8703 43.3505 24.9712C43.2416 26.8679 42.8182 28.6826 42.1333 30.3585C41.2989 32.3971 40.0785 34.2323 38.564 35.7664C37.0494 37.2988 35.239 38.5365 33.2248 39.3816C31.2868 40.1935 29.1636 40.6429 26.9392 40.6429C24.7148 40.6429 22.5916 40.1935 20.6536 39.3816C18.6409 38.5365 16.8306 37.2988 15.316 35.7664C13.8014 34.2323 12.581 32.3971 11.7467 30.3585C10.973 28.4666 10.5341 26.3996 10.5029 24.2349C10.4998 24.2002 10.4998 24.1624 10.4998 24.1245V17.1732H10.4983C10.4983 17.1527 10.4998 17.5153 10.4998 17.1133C10.4998 16.7128 9.87251 15.6848 9.09888 15.6959H7.79132C7.1391 15.6959 6.6799 15.3648 6.41061 14.7042L6.36858 14.4314V14.2091C6.36858 13.6021 6.70636 13.1638 7.38972 12.9037L7.65434 12.8564ZM27.0715 12.8564C33.1859 12.8564 38.1421 17.8764 38.1421 24.0693C38.1421 30.2623 33.1859 35.2823 27.0715 35.2823C20.9571 35.2823 16.0009 30.2623 16.0009 24.0693C16.0009 17.8764 20.9571 12.8564 27.0715 12.8564ZM23.7077 18.2579H23.7824C25.0105 18.2579 26.108 18.7703 27.0699 19.7951C27.9681 18.7703 29.0904 18.2579 30.4322 18.2579H30.5054C32.2145 18.2579 33.5906 19.1345 34.5526 20.9319C34.8437 21.4758 34.9495 22.3792 34.9495 23.6027V28.3073C34.9495 29.1508 34.7207 29.6885 34.2288 29.8099L33.9393 29.8824H33.6482C33.2077 29.8824 32.8839 29.5749 32.6737 28.9664L32.6364 28.3073V22.6882C32.6364 21.7596 32.1196 21.0911 31.0829 20.6764C30.8945 20.6008 30.6673 20.5661 30.3949 20.5661C29.4967 20.5661 28.8242 21.028 28.3713 21.9567C28.2499 22.2058 28.1923 22.5479 28.1923 22.9815V28.8576C28.1923 29.556 27.6832 29.8824 27.1073 29.8824H26.9252C26.2558 29.8824 26.013 29.3905 25.9507 28.8954L25.9134 28.6006V22.8348C25.9134 21.7785 25.4355 20.7726 24.2883 20.6386L23.675 20.5661C22.6507 20.5661 21.9378 21.1258 21.5393 22.2499L21.4693 22.8727V28.7109C21.4693 29.5008 21.0101 29.8824 20.4575 29.8824H20.2753C19.6558 29.8824 19.1935 29.4977 19.1935 28.7109V22.8348C19.1935 21.0233 20.0403 19.6327 21.7588 18.6978C22.3223 18.3919 22.9807 18.2579 23.7077 18.2579ZM1.1228 71.6914H51.9851V4.30473H1.1228V71.6914ZM57.5515 172.296L62.9498 104.14H110.237L105.883 172.296H57.5515ZM65.1446 71.6914L68.4322 30.1898C68.4322 21.6476 71.975 14.6837 79.0607 9.30264C86.1464 3.92003 94.0742 1.22873 102.846 1.22873C110.607 1.22873 117.481 3.32092 123.469 7.50844C129.459 11.6944 133.296 17.9741 134.984 26.346L145.693 71.6914H65.1446ZM149.746 71.6914L162.311 22.7576C163.831 16.6056 167.837 11.6077 174.332 7.76385C180.827 3.92003 187.869 1.99812 195.461 1.99812C204.402 1.99812 211.994 4.47501 218.234 9.43035C225.658 15.2402 229.369 23.3551 229.369 33.7782L232.452 71.6914H149.746ZM234.706 104.14L240.249 172.296H191.16L187.351 104.14H234.706ZM179.442 104.14L165.854 161.275C165.011 165.547 162.987 168.837 159.782 171.142C156.577 173.45 152.95 174.603 148.901 174.603C145.021 174.603 141.604 173.663 138.652 171.784C135.7 169.904 133.886 166.999 133.212 163.07L118.624 104.14H179.442ZM247.589 172.296V124.881H283.268C287.147 124.881 290.564 124.283 293.517 123.086C296.468 121.891 297.945 120.097 297.945 117.705C297.945 116.679 297.775 115.824 297.438 115.142C296.426 112.92 294.738 111.126 292.377 109.759C289.692 107.825 287.152 105.953 284.756 104.14H348.898C352.378 110.311 354.12 116.627 354.12 123.086V128.726C354.12 142.736 348.132 153.757 336.154 161.788C325.695 168.793 312.959 172.296 297.945 172.296H247.589ZM255.949 71.6914C250.375 63.1619 247.589 54.1971 247.589 44.7989L247.083 43.0047C247.083 28.8229 253.831 18.3147 267.327 11.48C276.942 6.69648 287.738 4.30473 299.715 4.30473H348.806V48.3873H314.898C311.019 48.3873 307.898 48.9848 305.535 50.1815C303.174 51.3781 301.994 52.8302 301.994 54.5377C301.994 56.4186 303.849 58.7252 307.56 61.4591C312.499 65.3029 316.859 68.7132 320.645 71.6914H255.949Z" fill="white"/>
</mask>
<g mask="url(#mask0)">
<path fill-rule="evenodd" clip-rule="evenodd" d="M1.1228 176.235H354.12V1.22873H1.1228V176.235Z" fill="white"/>
</g>
</svg>
