<svg width="305" height="198" viewBox="0 0 305 198" fill="none" xmlns="http://www.w3.org/2000/svg">
<path d="M2.98003 62.2V79H0.340027V62.2H2.98003ZM8.21203 79H5.83603V62.2H9.14803L11.86 72.256V62.2H14.212V79H11.5L8.21203 66.832V79ZM24.46 62.2V64.6H21.7V79H19.06V64.6H16.3V62.2H24.46ZM32.836 69.28V71.68H29.212V76.6H33.772V79H26.572V62.2H33.772V64.6H29.212V69.28H32.836ZM39.004 62.2V76.6H43.348V79H36.364V62.2H39.004ZM48.1 62.2V76.6H52.444V79H45.46V62.2H48.1ZM57.196 62.2V79H54.556V62.2H57.196ZM67.732 69.64V74.968C67.732 76.328 67.396 77.372 66.724 78.1C66.052 78.828 65.076 79.192 63.796 79.192C62.516 79.192 61.54 78.828 60.868 78.1C60.196 77.372 59.86 76.328 59.86 74.968V66.232C59.86 64.872 60.196 63.828 60.868 63.1C61.54 62.372 62.516 62.008 63.796 62.008C65.076 62.008 66.052 62.372 66.724 63.1C67.396 63.828 67.732 64.872 67.732 66.232V67.864H65.236V66.064C65.236 64.96 64.78 64.408 63.868 64.408C62.956 64.408 62.5 64.96 62.5 66.064V75.136C62.5 76.224 62.956 76.768 63.868 76.768C64.78 76.768 65.236 76.224 65.236 75.136V72.04H64.036V69.64H67.732ZM76.66 69.28V71.68H73.036V76.6H77.596V79H70.396V62.2H77.596V64.6H73.036V69.28H76.66ZM82.54 79H80.164V62.2H83.476L86.188 72.256V62.2H88.54V79H85.828L82.54 66.832V79ZM98.788 62.2V64.6H96.028V79H93.388V64.6H90.628V62.2H98.788ZM112.972 62.2H116.644V79H114.148V66.952L112.324 79H109.828L107.86 67.12V79H105.556V62.2H109.228L111.172 74.128L112.972 62.2ZM125.404 79L124.948 75.952H121.708L121.252 79H118.828L121.516 62.2H125.38L128.068 79H125.404ZM124.588 73.672L123.316 65.176L122.044 73.672H124.588ZM132.604 79H130.228V62.2H133.54L136.252 72.256V62.2H138.604V79H135.892L132.604 66.832V79ZM147.34 79L146.884 75.952H143.644L143.188 79H140.764L143.452 62.2H147.316L150.004 79H147.34ZM146.524 73.672L145.252 65.176L143.98 73.672H146.524ZM159.82 69.64V74.968C159.82 76.328 159.484 77.372 158.812 78.1C158.14 78.828 157.164 79.192 155.884 79.192C154.604 79.192 153.628 78.828 152.956 78.1C152.284 77.372 151.948 76.328 151.948 74.968V66.232C151.948 64.872 152.284 63.828 152.956 63.1C153.628 62.372 154.604 62.008 155.884 62.008C157.164 62.008 158.14 62.372 158.812 63.1C159.484 63.828 159.82 64.872 159.82 66.232V67.864H157.324V66.064C157.324 64.96 156.868 64.408 155.956 64.408C155.044 64.408 154.588 64.96 154.588 66.064V75.136C154.588 76.224 155.044 76.768 155.956 76.768C156.868 76.768 157.324 76.224 157.324 75.136V72.04H156.124V69.64H159.82ZM168.748 69.28V71.68H165.124V76.6H169.684V79H162.484V62.2H169.684V64.6H165.124V69.28H168.748ZM179.668 62.2H183.34V79H180.844V66.952L179.02 79H176.524L174.556 67.12V79H172.252V62.2H175.924L177.868 74.128L179.668 62.2ZM192.484 69.28V71.68H188.86V76.6H193.42V79H186.22V62.2H193.42V64.6H188.86V69.28H192.484ZM198.364 79H195.988V62.2H199.3L202.012 72.256V62.2H204.364V79H201.652L198.364 66.832V79ZM214.612 62.2V64.6H211.852V79H209.212V64.6H206.452V62.2H214.612ZM221.068 66.232C221.068 64.872 221.396 63.828 222.052 63.1C222.708 62.372 223.676 62.008 224.956 62.008C226.236 62.008 227.204 62.372 227.86 63.1C228.516 63.828 228.844 64.872 228.844 66.232V66.76H226.348V66.064C226.348 65.488 226.236 65.068 226.012 64.804C225.788 64.54 225.46 64.408 225.028 64.408C224.596 64.408 224.268 64.54 224.044 64.804C223.82 65.068 223.708 65.488 223.708 66.064C223.708 66.768 223.896 67.384 224.272 67.912C224.648 68.44 225.212 69.04 225.964 69.712C226.588 70.288 227.092 70.796 227.476 71.236C227.86 71.676 228.188 72.208 228.46 72.832C228.732 73.456 228.868 74.168 228.868 74.968C228.868 76.328 228.532 77.372 227.86 78.1C227.188 78.828 226.212 79.192 224.932 79.192C223.652 79.192 222.676 78.828 222.004 78.1C221.332 77.372 220.996 76.328 220.996 74.968V73.936H223.492V75.136C223.492 76.224 223.948 76.768 224.86 76.768C225.772 76.768 226.228 76.224 226.228 75.136C226.228 74.432 226.04 73.816 225.664 73.288C225.288 72.76 224.724 72.16 223.972 71.488C223.348 70.912 222.844 70.404 222.46 69.964C222.076 69.524 221.748 68.992 221.476 68.368C221.204 67.744 221.068 67.032 221.068 66.232ZM230.308 62.2H233.068L235.084 69.856L237.1 62.2H239.62L236.284 73.432V79H233.644V73.432L230.308 62.2ZM241.132 66.232C241.132 64.872 241.46 63.828 242.116 63.1C242.772 62.372 243.74 62.008 245.02 62.008C246.3 62.008 247.268 62.372 247.924 63.1C248.58 63.828 248.908 64.872 248.908 66.232V66.76H246.412V66.064C246.412 65.488 246.3 65.068 246.076 64.804C245.852 64.54 245.524 64.408 245.092 64.408C244.66 64.408 244.332 64.54 244.108 64.804C243.884 65.068 243.772 65.488 243.772 66.064C243.772 66.768 243.96 67.384 244.336 67.912C244.712 68.44 245.276 69.04 246.028 69.712C246.652 70.288 247.156 70.796 247.54 71.236C247.924 71.676 248.252 72.208 248.524 72.832C248.796 73.456 248.932 74.168 248.932 74.968C248.932 76.328 248.596 77.372 247.924 78.1C247.252 78.828 246.276 79.192 244.996 79.192C243.716 79.192 242.74 78.828 242.068 78.1C241.396 77.372 241.06 76.328 241.06 74.968V73.936H243.556V75.136C243.556 76.224 244.012 76.768 244.924 76.768C245.836 76.768 246.292 76.224 246.292 75.136C246.292 74.432 246.104 73.816 245.728 73.288C245.352 72.76 244.788 72.16 244.036 71.488C243.412 70.912 242.908 70.404 242.524 69.964C242.14 69.524 241.812 68.992 241.54 68.368C241.268 67.744 241.132 67.032 241.132 66.232ZM258.796 62.2V64.6H256.036V79H253.396V64.6H250.636V62.2H258.796ZM267.172 69.28V71.68H263.548V76.6H268.108V79H260.908V62.2H268.108V64.6H263.548V69.28H267.172ZM278.092 62.2H281.764V79H279.268V66.952L277.444 79H274.948L272.98 67.12V79H270.676V62.2H274.348L276.292 74.128L278.092 62.2ZM284.308 66.232C284.308 64.872 284.636 63.828 285.292 63.1C285.948 62.372 286.916 62.008 288.196 62.008C289.476 62.008 290.444 62.372 291.1 63.1C291.756 63.828 292.084 64.872 292.084 66.232V66.76H289.588V66.064C289.588 65.488 289.476 65.068 289.252 64.804C289.028 64.54 288.7 64.408 288.268 64.408C287.836 64.408 287.508 64.54 287.284 64.804C287.06 65.068 286.948 65.488 286.948 66.064C286.948 66.768 287.136 67.384 287.512 67.912C287.888 68.44 288.452 69.04 289.204 69.712C289.828 70.288 290.332 70.796 290.716 71.236C291.1 71.676 291.428 72.208 291.7 72.832C291.972 73.456 292.108 74.168 292.108 74.968C292.108 76.328 291.772 77.372 291.1 78.1C290.428 78.828 289.452 79.192 288.172 79.192C286.892 79.192 285.916 78.828 285.244 78.1C284.572 77.372 284.236 76.328 284.236 74.968V73.936H286.732V75.136C286.732 76.224 287.188 76.768 288.1 76.768C289.012 76.768 289.468 76.224 289.468 75.136C289.468 74.432 289.28 73.816 288.904 73.288C288.528 72.76 287.964 72.16 287.212 71.488C286.588 70.912 286.084 70.404 285.7 69.964C285.316 69.524 284.988 68.992 284.716 68.368C284.444 67.744 284.308 67.032 284.308 66.232Z" fill="white"/>
<mask id="mask0" mask-type="alpha" maskUnits="userSpaceOnUse" x="0" y="0" width="299" height="143">
<path d="M0.453979 140.147H43.4474V82.7343H0.453979V140.147ZM5.97503 9.82449H13.0408C13.5829 9.82449 13.9711 10.1286 14.2053 10.7382L14.2435 11.0384C14.2435 11.5338 13.9671 11.899 13.4158 12.138C13.3132 12.1898 13.1763 12.2164 13.0027 12.2164H11.9185C11.2711 12.2244 10.7408 12.7556 10.7487 13.4104V18.9472H10.7579V19.2048C10.7579 20.7813 11.0685 22.2834 11.6303 23.6526C12.2132 25.0724 13.0685 26.3526 14.1316 27.4257C15.1948 28.4988 16.4632 29.3621 17.8711 29.9518C19.2277 30.5189 20.7145 30.831 22.2763 30.831C23.8382 30.831 25.3263 30.5189 26.6829 29.9518C28.0908 29.3621 29.3592 28.4988 30.4211 27.4257C31.4842 26.3526 32.3408 25.0724 32.9237 23.6526C33.3869 22.5237 33.679 21.3046 33.7671 20.0269C33.7685 19.9884 33.7979 17.4091 33.8019 17.3719C34.0539 17.0375 34.4491 16.8716 34.9877 16.8744C35.5262 16.8772 35.9119 17.0661 36.1446 17.441C36.1515 17.5167 36.154 19.9446 36.1487 20.0296C36.0566 21.6273 35.6987 23.1559 35.1198 24.5677C34.4145 26.2849 33.3829 27.8308 32.1027 29.1231C30.8224 30.414 29.2921 31.4565 27.5895 32.1684C25.9513 32.8523 24.1566 33.2309 22.2763 33.2309C20.3961 33.2309 18.6013 32.8523 16.9632 32.1684C15.2619 31.4565 13.7316 30.414 12.4513 29.1231C11.1711 27.8308 10.1395 26.2849 9.43424 24.5677C8.7803 22.974 8.40924 21.2328 8.38293 19.4094C8.38029 19.3801 8.3803 19.3483 8.3803 19.3164V13.4608C8.37898 13.4436 8.3803 13.749 8.3803 13.4104C8.3803 13.073 7.85003 12.2071 7.19608 12.2164H6.09082C5.53951 12.2164 5.15135 11.9375 4.92372 11.381L4.88819 11.1513V10.964C4.88819 10.4527 5.17372 10.0835 5.75135 9.86434L5.97503 9.82449ZM35.0024 15.9591C34.6233 15.967 34.2157 15.8083 33.7796 15.4831C33.7774 14.3014 33.7763 13.5976 33.7763 13.3718C33.7763 13.0332 33.2474 12.1673 32.5935 12.1779H31.4882C30.9369 12.1779 30.5487 11.899 30.3211 11.3425L30.2856 11.1127V10.9255C30.2856 10.4142 30.5711 10.045 31.1487 9.82449L31.3724 9.78598H38.4382C38.9803 9.78598 39.3671 10.0901 39.6013 10.6984L39.6395 10.9999C39.6395 11.4952 39.3645 11.8605 38.8132 12.0995C38.7106 12.1513 38.5724 12.1779 38.4 12.1779H37.3158C36.6685 12.1845 36.1382 12.7171 36.1461 13.3718L36.1382 15.4492C35.7601 15.7813 35.3816 15.9512 35.0024 15.9591ZM22.3882 9.82449C27.5566 9.82449 31.7461 14.0531 31.7461 19.2699C31.7461 24.4867 27.5566 28.7153 22.3882 28.7153C17.2198 28.7153 13.0303 24.4867 13.0303 19.2699C13.0303 14.0531 17.2198 9.82449 22.3882 9.82449ZM19.5448 14.3745H19.6079C20.6461 14.3745 21.5737 14.8062 22.3869 15.6694C23.1461 14.8062 24.0948 14.3745 25.229 14.3745H25.2908C26.7356 14.3745 27.8987 15.113 28.7119 16.627C28.9579 17.0852 29.0474 17.8462 29.0474 18.8768V22.8398C29.0474 23.5504 28.854 24.0032 28.4382 24.1055L28.1935 24.1666H27.9474C27.575 24.1666 27.3013 23.9076 27.1237 23.395L27.0921 22.8398V18.1065C27.0921 17.3242 26.6553 16.7611 25.779 16.4118C25.6198 16.3481 25.4277 16.3189 25.1974 16.3189C24.4382 16.3189 23.8698 16.708 23.4869 17.4903C23.3842 17.7001 23.3356 17.9883 23.3356 18.3535V23.3033C23.3356 23.8917 22.9053 24.1666 22.4185 24.1666H22.2645C21.6987 24.1666 21.4935 23.7522 21.4408 23.3352L21.4092 23.0869V18.23C21.4092 17.3402 21.0053 16.4929 20.0356 16.38L19.5171 16.3189C18.6513 16.3189 18.0487 16.7904 17.7119 17.7373L17.6527 18.2619V23.1798C17.6527 23.8452 17.2645 24.1666 16.7974 24.1666H16.6435C16.1198 24.1666 15.729 23.8425 15.729 23.1798V18.23C15.729 16.704 16.4448 15.5326 17.8974 14.7451C18.3737 14.4874 18.9303 14.3745 19.5448 14.3745ZM0.453979 59.385H43.4474V2.6209H0.453979V59.385ZM48.1527 140.147L52.7158 82.7343H92.6869L89.0066 140.147H48.1527ZM54.5711 59.385L57.35 24.4256C57.35 17.23 60.3448 11.3638 66.3342 6.83096C72.3237 2.29684 79.025 0.0297852 86.4395 0.0297852C93 0.0297852 98.8106 1.79217 103.872 5.31959C108.936 8.84568 112.179 14.1355 113.605 21.1877L122.658 59.385H54.5711ZM126.084 59.385L136.705 18.1649C137.99 12.9827 141.376 8.77264 146.866 5.53474C152.357 2.29684 158.309 0.677896 164.726 0.677896C172.284 0.677896 178.701 2.76433 183.976 6.93854C190.251 11.8326 193.388 18.6683 193.388 27.4483L195.995 59.385H126.084ZM197.9 82.7343L202.586 140.147H161.091L157.871 82.7343H197.9ZM151.186 82.7343L139.7 130.863C138.987 134.461 137.276 137.233 134.567 139.174C131.858 141.119 128.792 142.09 125.37 142.09C122.09 142.09 119.201 141.298 116.707 139.715C114.211 138.132 112.678 135.684 112.108 132.375L99.7763 82.7343H151.186ZM208.79 140.147V100.205H238.949C242.228 100.205 245.116 99.702 247.612 98.694C250.107 97.6873 251.355 96.1759 251.355 94.1612C251.355 93.2966 251.212 92.5768 250.926 92.0017C250.071 90.1305 248.645 88.6191 246.649 87.4676C244.379 85.838 242.232 84.2616 240.207 82.7343H294.425C297.367 87.9325 298.84 93.2528 298.84 98.694V103.445C298.84 115.246 293.778 124.529 283.653 131.295C274.812 137.196 264.046 140.147 251.355 140.147H208.79ZM215.857 59.385C211.145 52.2 208.79 44.6485 208.79 36.7317L208.362 35.2203C208.362 23.2741 214.066 14.4224 225.474 8.66506C233.601 4.63562 242.728 2.6209 252.851 2.6209H294.347V39.7545H265.686C262.407 39.7545 259.768 40.2578 257.771 41.2658C255.775 42.2739 254.778 43.497 254.778 44.9354C254.778 46.5198 256.346 48.4628 259.483 50.7657C263.658 54.0036 267.343 56.8763 270.543 59.385H215.857Z" fill="white"/>
</mask>
<g mask="url(#mask0)">
<path fill-rule="evenodd" clip-rule="evenodd" d="M0.453979 142.09H298.84V0.0297852H0.453979V142.09Z" fill="white"/>
</g>
<path d="M12.1094 172.488C11.9336 173.992 11.377 175.154 10.4395 175.975C9.50846 176.788 8.26823 177.195 6.71875 177.195C5.03906 177.195 3.69141 176.593 2.67578 175.389C1.66667 174.184 1.16211 172.573 1.16211 170.555V169.188C1.16211 167.866 1.39648 166.704 1.86523 165.701C2.34049 164.699 3.01107 163.93 3.87695 163.396C4.74284 162.856 5.74544 162.586 6.88477 162.586C8.39518 162.586 9.60612 163.009 10.5176 163.855C11.429 164.695 11.9596 165.861 12.1094 167.352H10.2246C10.0618 166.219 9.70703 165.398 9.16016 164.891C8.61979 164.383 7.86133 164.129 6.88477 164.129C5.68685 164.129 4.74609 164.572 4.0625 165.457C3.38542 166.342 3.04688 167.602 3.04688 169.236V170.613C3.04688 172.156 3.36914 173.383 4.01367 174.295C4.6582 175.206 5.5599 175.662 6.71875 175.662C7.76042 175.662 8.55794 175.428 9.11133 174.959C9.67122 174.484 10.0423 173.66 10.2246 172.488H12.1094ZM23.6426 162.781H25.5176V177H23.6426V166.043L16.6406 177H14.7559V162.781H16.6406V173.738L23.6426 162.781ZM39.3945 172.488C39.2188 173.992 38.6621 175.154 37.7246 175.975C36.7936 176.788 35.5534 177.195 34.0039 177.195C32.3242 177.195 30.9766 176.593 29.9609 175.389C28.9518 174.184 28.4473 172.573 28.4473 170.555V169.188C28.4473 167.866 28.6816 166.704 29.1504 165.701C29.6257 164.699 30.2962 163.93 31.1621 163.396C32.028 162.856 33.0306 162.586 34.1699 162.586C35.6803 162.586 36.8913 163.009 37.8027 163.855C38.7142 164.695 39.2448 165.861 39.3945 167.352H37.5098C37.347 166.219 36.9922 165.398 36.4453 164.891C35.9049 164.383 35.1465 164.129 34.1699 164.129C32.972 164.129 32.0312 164.572 31.3477 165.457C30.6706 166.342 30.332 167.602 30.332 169.236V170.613C30.332 172.156 30.6543 173.383 31.2988 174.295C31.9434 175.206 32.8451 175.662 34.0039 175.662C35.0456 175.662 35.8431 175.428 36.3965 174.959C36.9564 174.484 37.3275 173.66 37.5098 172.488H39.3945ZM51.4941 164.324H46.9238V177H45.0586V164.324H40.498V162.781H51.4941V164.324ZM61.6406 170.428H55.4785V175.467H62.6367V177H53.6035V162.781H62.5391V164.324H55.4785V168.895H61.6406V170.428ZM67.3926 162.781L72.041 174.383L76.6895 162.781H79.1211V177H77.2461V171.463L77.4219 165.486L72.7539 177H71.3184L66.6602 165.516L66.8457 171.463V177H64.9707V162.781H67.3926ZM90.459 173.289H84.502L83.1641 177H81.2305L86.6602 162.781H88.3008L93.7402 177H91.8164L90.459 173.289ZM85.0684 171.746H89.9023L87.4805 165.096L85.0684 171.746ZM105.498 171.033L108.77 162.781H110.947L105.918 174.627C105.579 175.382 105.264 175.919 104.971 176.238C104.678 176.551 104.333 176.792 103.936 176.961C103.545 177.124 103.053 177.205 102.461 177.205C101.947 177.205 101.618 177.176 101.475 177.117L101.533 175.633L102.422 175.672C103.105 175.672 103.613 175.343 103.945 174.686L104.189 174.178L104.561 173.309L99.7168 162.781H101.816L105.498 171.033ZM123.496 162.781V177H121.611V171.111C120.928 171.307 120.306 171.443 119.746 171.521C119.186 171.593 118.548 171.629 117.832 171.629C116.211 171.629 115.007 171.277 114.219 170.574C113.431 169.871 113.027 168.794 113.008 167.342V162.781H114.893V167.293C114.899 168.283 115.124 168.995 115.566 169.432C116.016 169.868 116.771 170.086 117.832 170.086C119.069 170.086 120.329 169.91 121.611 169.559V162.781H123.496ZM134.922 170.428H128.76V175.467H135.918V177H126.885V162.781H135.82V164.324H128.76V168.895H134.922V170.428ZM148.271 164.324H143.701V177H141.836V164.324H137.275V162.781H148.271V164.324ZM157.451 173.289H151.494L150.156 177H148.223L153.652 162.781H155.293L160.732 177H158.809L157.451 173.289ZM152.061 171.746H156.895L154.473 165.096L152.061 171.746ZM180.4 180.486H178.535V177H168.33V180.496H166.455L166.445 175.467H167.607C168.219 174.777 168.704 173.852 169.062 172.693C169.427 171.528 169.655 170.252 169.746 168.865L170.059 162.781H178.564V175.467H180.42L180.4 180.486ZM169.746 175.467H176.68V164.324H171.865L171.66 168.504C171.576 170.138 171.357 171.531 171.006 172.684C170.661 173.836 170.241 174.764 169.746 175.467ZM193.555 162.781V177H191.68V164.324H186.582L186.328 169.959C186.23 171.847 186.035 173.266 185.742 174.217C185.456 175.167 185.033 175.867 184.473 176.316C183.913 176.759 183.164 176.987 182.227 177H181.611V175.467L182.002 175.447C182.607 175.402 183.073 175.206 183.398 174.861C183.724 174.51 183.971 173.953 184.141 173.191C184.31 172.43 184.43 171.258 184.502 169.676L184.795 162.781H193.555ZM204.404 177V171.463H201.123L198.184 177H196.182L199.482 170.945C197.646 170.223 196.729 168.93 196.729 167.068C196.729 165.714 197.171 164.663 198.057 163.914C198.949 163.159 200.186 162.781 201.768 162.781H206.289V177H204.404ZM198.604 167.068C198.604 167.928 198.87 168.618 199.404 169.139C199.945 169.66 200.693 169.923 201.65 169.93H204.404V164.324H201.738C200.723 164.324 199.945 164.565 199.404 165.047C198.87 165.529 198.604 166.202 198.604 167.068ZM223.33 164.324H216.475V168.582H220.01C221.494 168.602 222.653 168.982 223.486 169.725C224.32 170.467 224.736 171.476 224.736 172.752C224.736 174.035 224.316 175.057 223.477 175.818C222.637 176.58 221.491 176.974 220.039 177H214.59V162.781H223.33V164.324ZM216.475 170.125V175.467H219.902C220.833 175.467 221.556 175.219 222.07 174.725C222.591 174.23 222.852 173.566 222.852 172.732C222.852 171.932 222.601 171.3 222.1 170.838C221.605 170.376 220.898 170.138 219.98 170.125H216.475ZM236.24 162.781H238.115V177H236.24V166.043L229.238 177H227.354V162.781H229.238V173.738L236.24 162.781ZM248.828 166.6C248.828 165.844 248.551 165.245 247.998 164.803C247.451 164.354 246.68 164.129 245.684 164.129C244.85 164.129 244.15 164.36 243.584 164.822C243.024 165.278 242.744 165.844 242.744 166.521H240.869C240.869 165.766 241.074 165.089 241.484 164.49C241.901 163.891 242.48 163.426 243.223 163.094C243.965 162.755 244.785 162.586 245.684 162.586C247.272 162.586 248.506 162.944 249.385 163.66C250.264 164.37 250.703 165.359 250.703 166.629C250.703 167.286 250.501 167.885 250.098 168.426C249.694 168.966 249.131 169.393 248.408 169.705C250.081 170.265 250.918 171.375 250.918 173.035C250.918 174.311 250.443 175.324 249.492 176.072C248.542 176.821 247.272 177.195 245.684 177.195C244.74 177.195 243.88 177.029 243.105 176.697C242.337 176.359 241.738 175.88 241.309 175.262C240.879 174.643 240.664 173.908 240.664 173.055H242.539C242.539 173.803 242.835 174.428 243.428 174.93C244.02 175.424 244.772 175.672 245.684 175.672C246.706 175.672 247.52 175.434 248.125 174.959C248.737 174.484 249.043 173.855 249.043 173.074C249.043 171.408 248.011 170.558 245.947 170.525H244.189V168.982H245.938C246.888 168.963 247.607 168.748 248.096 168.338C248.584 167.928 248.828 167.348 248.828 166.6ZM264.336 177H262.451V170.428H255.283V177H253.408V162.781H255.283V168.895H262.451V162.781H264.336V177ZM275.703 170.428H269.541V175.467H276.699V177H267.666V162.781H276.602V164.324H269.541V168.895H275.703V170.428ZM289.492 172.488C289.316 173.992 288.76 175.154 287.822 175.975C286.891 176.788 285.651 177.195 284.102 177.195C282.422 177.195 281.074 176.593 280.059 175.389C279.049 174.184 278.545 172.573 278.545 170.555V169.188C278.545 167.866 278.779 166.704 279.248 165.701C279.723 164.699 280.394 163.93 281.26 163.396C282.126 162.856 283.128 162.586 284.268 162.586C285.778 162.586 286.989 163.009 287.9 163.855C288.812 164.695 289.342 165.861 289.492 167.352H287.607C287.445 166.219 287.09 165.398 286.543 164.891C286.003 164.383 285.244 164.129 284.268 164.129C283.07 164.129 282.129 164.572 281.445 165.457C280.768 166.342 280.43 167.602 280.43 169.236V170.613C280.43 172.156 280.752 173.383 281.396 174.295C282.041 175.206 282.943 175.662 284.102 175.662C285.143 175.662 285.941 175.428 286.494 174.959C287.054 174.484 287.425 173.66 287.607 172.488H289.492ZM299.912 173.289H293.955L292.617 177H290.684L296.113 162.781H297.754L303.193 177H301.27L299.912 173.289ZM294.521 171.746H299.355L296.934 165.096L294.521 171.746Z" fill="white"/>
</svg>
