<svg width="590" height="282" viewBox="0 0 590 282" fill="none" xmlns="http://www.w3.org/2000/svg">
<g clip-path="url(#clip0)">
<path d="M7.1782 124.573V157.703H1.97205V124.573H7.1782ZM17.4958 157.703H12.8103V124.573H19.3417L24.6898 144.404V124.573H29.328V157.703H23.9799L17.4958 133.708V157.703ZM49.5374 124.573V129.306H44.0946V157.703H38.8884V129.306H33.4456V124.573H49.5374ZM66.0551 138.535V143.268H58.9084V152.971H67.9009V157.703H53.7023V124.573H67.9009V129.306H58.9084V138.535H66.0551ZM78.2185 124.573V152.971H86.785V157.703H73.0124V124.573H78.2185ZM96.1561 124.573V152.971H104.723V157.703H90.9499V124.573H96.1561ZM114.094 124.573V157.703H108.888V124.573H114.094ZM134.871 139.245V149.752C134.871 152.434 134.208 154.493 132.883 155.929C131.558 157.364 129.633 158.082 127.109 158.082C124.585 158.082 122.66 157.364 121.335 155.929C120.01 154.493 119.347 152.434 119.347 149.752V132.525C119.347 129.843 120.01 127.784 121.335 126.348C122.66 124.913 124.585 124.195 127.109 124.195C129.633 124.195 131.558 124.913 132.883 126.348C134.208 127.784 134.871 129.843 134.871 132.525V135.743H129.949V132.193C129.949 130.016 129.05 128.928 127.251 128.928C125.453 128.928 124.553 130.016 124.553 132.193V150.084C124.553 152.229 125.453 153.302 127.251 153.302C129.05 153.302 129.949 152.229 129.949 150.084V143.978H127.582V139.245H134.871ZM152.477 138.535V143.268H145.331V152.971H154.323V157.703H140.124V124.573H154.323V129.306H145.331V138.535H152.477ZM164.073 157.703H159.387V124.573H165.919L171.267 144.404V124.573H175.905V157.703H170.557L164.073 133.708V157.703ZM196.114 124.573V129.306H190.671V157.703H185.465V129.306H180.023V124.573H196.114ZM224.085 124.573H231.327V157.703H226.405V133.944L222.808 157.703H217.885L214.004 134.276V157.703H209.461V124.573H216.702L220.536 148.096L224.085 124.573ZM248.602 157.703L247.703 151.693H241.313L240.414 157.703H235.634L240.935 124.573H248.554L253.855 157.703H248.602ZM246.993 147.197L244.484 130.442L241.976 147.197H246.993ZM262.8 157.703H258.115V124.573H264.646L269.994 144.404V124.573H274.633V157.703H269.284L262.8 133.708V157.703ZM291.86 157.703L290.961 151.693H284.572L283.672 157.703H278.892L284.193 124.573H291.813L297.114 157.703H291.86ZM290.251 147.197L287.743 130.442L285.234 147.197H290.251ZM316.471 139.245V149.752C316.471 152.434 315.808 154.493 314.483 155.929C313.158 157.364 311.233 158.082 308.709 158.082C306.185 158.082 304.26 157.364 302.935 155.929C301.61 154.493 300.947 152.434 300.947 149.752V132.525C300.947 129.843 301.61 127.784 302.935 126.348C304.26 124.913 306.185 124.195 308.709 124.195C311.233 124.195 313.158 124.913 314.483 126.348C315.808 127.784 316.471 129.843 316.471 132.525V135.743H311.549V132.193C311.549 130.016 310.65 128.928 308.851 128.928C307.053 128.928 306.153 130.016 306.153 132.193V150.084C306.153 152.229 307.053 153.302 308.851 153.302C310.65 153.302 311.549 152.229 311.549 150.084V143.978H309.182V139.245H316.471ZM334.077 138.535V143.268H326.931V152.971H335.923V157.703H321.725V124.573H335.923V129.306H326.931V138.535H334.077ZM355.612 124.573H362.853V157.703H357.931V133.944L354.334 157.703H349.412L345.531 134.276V157.703H340.987V124.573H348.229L352.062 148.096L355.612 124.573ZM380.885 138.535V143.268H373.739V152.971H382.731V157.703H368.533V124.573H382.731V129.306H373.739V138.535H380.885ZM392.481 157.703H387.795V124.573H394.327L399.675 144.404V124.573H404.313V157.703H398.965L392.481 133.708V157.703ZM424.522 124.573V129.306H419.08V157.703H413.873V129.306H408.431V124.573H424.522ZM437.254 132.525C437.254 129.843 437.901 127.784 439.194 126.348C440.488 124.913 442.397 124.195 444.921 124.195C447.445 124.195 449.354 124.913 450.648 126.348C451.941 127.784 452.588 129.843 452.588 132.525V133.566H447.666V132.193C447.666 131.057 447.445 130.229 447.004 129.709C446.562 129.188 445.915 128.928 445.063 128.928C444.211 128.928 443.564 129.188 443.123 129.709C442.681 130.229 442.46 131.057 442.46 132.193C442.46 133.582 442.831 134.796 443.572 135.838C444.314 136.879 445.426 138.062 446.909 139.387C448.139 140.523 449.133 141.525 449.891 142.393C450.648 143.26 451.295 144.309 451.831 145.54C452.367 146.771 452.636 148.175 452.636 149.752C452.636 152.434 451.973 154.493 450.648 155.929C449.323 157.364 447.398 158.082 444.874 158.082C442.35 158.082 440.425 157.364 439.1 155.929C437.774 154.493 437.112 152.434 437.112 149.752V147.717H442.034V150.084C442.034 152.229 442.933 153.302 444.732 153.302C446.53 153.302 447.429 152.229 447.429 150.084C447.429 148.695 447.059 147.48 446.317 146.439C445.576 145.398 444.464 144.215 442.981 142.89C441.75 141.754 440.756 140.752 439.999 139.884C439.242 139.017 438.595 137.967 438.058 136.737C437.522 135.506 437.254 134.102 437.254 132.525ZM455.475 124.573H460.918L464.894 139.671L468.869 124.573H473.839L467.26 146.723V157.703H462.054V146.723L455.475 124.573ZM476.821 132.525C476.821 129.843 477.467 127.784 478.761 126.348C480.055 124.913 481.964 124.195 484.488 124.195C487.012 124.195 488.921 124.913 490.215 126.348C491.508 127.784 492.155 129.843 492.155 132.525V133.566H487.233V132.193C487.233 131.057 487.012 130.229 486.57 129.709C486.129 129.188 485.482 128.928 484.63 128.928C483.778 128.928 483.131 129.188 482.689 129.709C482.248 130.229 482.027 131.057 482.027 132.193C482.027 133.582 482.397 134.796 483.139 135.838C483.88 136.879 484.993 138.062 486.476 139.387C487.706 140.523 488.7 141.525 489.457 142.393C490.215 143.26 490.861 144.309 491.398 145.54C491.934 146.771 492.202 148.175 492.202 149.752C492.202 152.434 491.54 154.493 490.215 155.929C488.889 157.364 486.965 158.082 484.441 158.082C481.916 158.082 479.992 157.364 478.666 155.929C477.341 154.493 476.679 152.434 476.679 149.752V147.717H481.601V150.084C481.601 152.229 482.5 153.302 484.299 153.302C486.097 153.302 486.996 152.229 486.996 150.084C486.996 148.695 486.626 147.48 485.884 146.439C485.143 145.398 484.03 144.215 482.547 142.89C481.317 141.754 480.323 140.752 479.566 139.884C478.808 139.017 478.162 137.967 477.625 136.737C477.089 135.506 476.821 134.102 476.821 132.525ZM511.654 124.573V129.306H506.212V157.703H501.006V129.306H495.563V124.573H511.654ZM528.172 138.535V143.268H521.026V152.971H530.018V157.703H515.819V124.573H530.018V129.306H521.026V138.535H528.172ZM549.707 124.573H556.948V157.703H552.026V133.944L548.429 157.703H543.507L539.626 134.276V157.703H535.082V124.573H542.323L546.157 148.096L549.707 124.573ZM561.965 132.525C561.965 129.843 562.612 127.784 563.905 126.348C565.199 124.913 567.108 124.195 569.632 124.195C572.156 124.195 574.065 124.913 575.359 126.348C576.653 127.784 577.299 129.843 577.299 132.525V133.566H572.377V132.193C572.377 131.057 572.156 130.229 571.715 129.709C571.273 129.188 570.626 128.928 569.774 128.928C568.922 128.928 568.275 129.188 567.834 129.709C567.392 130.229 567.171 131.057 567.171 132.193C567.171 133.582 567.542 134.796 568.283 135.838C569.025 136.879 570.137 138.062 571.62 139.387C572.85 140.523 573.844 141.525 574.602 142.393C575.359 143.26 576.006 144.309 576.542 145.54C577.078 146.771 577.347 148.175 577.347 149.752C577.347 152.434 576.684 154.493 575.359 155.929C574.034 157.364 572.109 158.082 569.585 158.082C567.061 158.082 565.136 157.364 563.811 155.929C562.485 154.493 561.823 152.434 561.823 149.752V147.717H566.745V150.084C566.745 152.229 567.644 153.302 569.443 153.302C571.241 153.302 572.141 152.229 572.141 150.084C572.141 148.695 571.77 147.48 571.028 146.439C570.287 145.398 569.175 144.215 567.692 142.89C566.461 141.754 565.467 140.752 564.71 139.884C563.953 139.017 563.306 137.967 562.769 136.737C562.233 135.506 561.965 134.102 561.965 132.525Z" fill="url(#paint0_linear)"/>
<path d="M7.1782 124.573V157.703H1.97205V124.573H7.1782ZM17.4958 157.703H12.8103V124.573H19.3417L24.6898 144.404V124.573H29.328V157.703H23.9799L17.4958 133.708V157.703ZM49.5374 124.573V129.306H44.0946V157.703H38.8884V129.306H33.4456V124.573H49.5374ZM66.0551 138.535V143.268H58.9084V152.971H67.9009V157.703H53.7023V124.573H67.9009V129.306H58.9084V138.535H66.0551ZM78.2185 124.573V152.971H86.785V157.703H73.0124V124.573H78.2185ZM96.1561 124.573V152.971H104.723V157.703H90.9499V124.573H96.1561ZM114.094 124.573V157.703H108.888V124.573H114.094ZM134.871 139.245V149.752C134.871 152.434 134.208 154.493 132.883 155.929C131.558 157.364 129.633 158.082 127.109 158.082C124.585 158.082 122.66 157.364 121.335 155.929C120.01 154.493 119.347 152.434 119.347 149.752V132.525C119.347 129.843 120.01 127.784 121.335 126.348C122.66 124.913 124.585 124.195 127.109 124.195C129.633 124.195 131.558 124.913 132.883 126.348C134.208 127.784 134.871 129.843 134.871 132.525V135.743H129.949V132.193C129.949 130.016 129.05 128.928 127.251 128.928C125.453 128.928 124.553 130.016 124.553 132.193V150.084C124.553 152.229 125.453 153.302 127.251 153.302C129.05 153.302 129.949 152.229 129.949 150.084V143.978H127.582V139.245H134.871ZM152.477 138.535V143.268H145.331V152.971H154.323V157.703H140.124V124.573H154.323V129.306H145.331V138.535H152.477ZM164.073 157.703H159.387V124.573H165.919L171.267 144.404V124.573H175.905V157.703H170.557L164.073 133.708V157.703ZM196.114 124.573V129.306H190.671V157.703H185.465V129.306H180.023V124.573H196.114ZM224.085 124.573H231.327V157.703H226.405V133.944L222.808 157.703H217.885L214.004 134.276V157.703H209.461V124.573H216.702L220.536 148.096L224.085 124.573ZM248.602 157.703L247.703 151.693H241.313L240.414 157.703H235.634L240.935 124.573H248.554L253.855 157.703H248.602ZM246.993 147.197L244.484 130.442L241.976 147.197H246.993ZM262.8 157.703H258.115V124.573H264.646L269.994 144.404V124.573H274.633V157.703H269.284L262.8 133.708V157.703ZM291.86 157.703L290.961 151.693H284.572L283.672 157.703H278.892L284.193 124.573H291.813L297.114 157.703H291.86ZM290.251 147.197L287.743 130.442L285.234 147.197H290.251ZM316.471 139.245V149.752C316.471 152.434 315.808 154.493 314.483 155.929C313.158 157.364 311.233 158.082 308.709 158.082C306.185 158.082 304.26 157.364 302.935 155.929C301.61 154.493 300.947 152.434 300.947 149.752V132.525C300.947 129.843 301.61 127.784 302.935 126.348C304.26 124.913 306.185 124.195 308.709 124.195C311.233 124.195 313.158 124.913 314.483 126.348C315.808 127.784 316.471 129.843 316.471 132.525V135.743H311.549V132.193C311.549 130.016 310.65 128.928 308.851 128.928C307.053 128.928 306.153 130.016 306.153 132.193V150.084C306.153 152.229 307.053 153.302 308.851 153.302C310.65 153.302 311.549 152.229 311.549 150.084V143.978H309.182V139.245H316.471ZM334.077 138.535V143.268H326.931V152.971H335.923V157.703H321.725V124.573H335.923V129.306H326.931V138.535H334.077ZM355.612 124.573H362.853V157.703H357.931V133.944L354.334 157.703H349.412L345.531 134.276V157.703H340.987V124.573H348.229L352.062 148.096L355.612 124.573ZM380.885 138.535V143.268H373.739V152.971H382.731V157.703H368.533V124.573H382.731V129.306H373.739V138.535H380.885ZM392.481 157.703H387.795V124.573H394.327L399.675 144.404V124.573H404.313V157.703H398.965L392.481 133.708V157.703ZM424.522 124.573V129.306H419.08V157.703H413.873V129.306H408.431V124.573H424.522ZM437.254 132.525C437.254 129.843 437.901 127.784 439.194 126.348C440.488 124.913 442.397 124.195 444.921 124.195C447.445 124.195 449.354 124.913 450.648 126.348C451.941 127.784 452.588 129.843 452.588 132.525V133.566H447.666V132.193C447.666 131.057 447.445 130.229 447.004 129.709C446.562 129.188 445.915 128.928 445.063 128.928C444.211 128.928 443.564 129.188 443.123 129.709C442.681 130.229 442.46 131.057 442.46 132.193C442.46 133.582 442.831 134.796 443.572 135.838C444.314 136.879 445.426 138.062 446.909 139.387C448.139 140.523 449.133 141.525 449.891 142.393C450.648 143.26 451.295 144.309 451.831 145.54C452.367 146.771 452.636 148.175 452.636 149.752C452.636 152.434 451.973 154.493 450.648 155.929C449.323 157.364 447.398 158.082 444.874 158.082C442.35 158.082 440.425 157.364 439.1 155.929C437.774 154.493 437.112 152.434 437.112 149.752V147.717H442.034V150.084C442.034 152.229 442.933 153.302 444.732 153.302C446.53 153.302 447.429 152.229 447.429 150.084C447.429 148.695 447.059 147.48 446.317 146.439C445.576 145.398 444.464 144.215 442.981 142.89C441.75 141.754 440.756 140.752 439.999 139.884C439.242 139.017 438.595 137.967 438.058 136.737C437.522 135.506 437.254 134.102 437.254 132.525ZM455.475 124.573H460.918L464.894 139.671L468.869 124.573H473.839L467.26 146.723V157.703H462.054V146.723L455.475 124.573ZM476.821 132.525C476.821 129.843 477.467 127.784 478.761 126.348C480.055 124.913 481.964 124.195 484.488 124.195C487.012 124.195 488.921 124.913 490.215 126.348C491.508 127.784 492.155 129.843 492.155 132.525V133.566H487.233V132.193C487.233 131.057 487.012 130.229 486.57 129.709C486.129 129.188 485.482 128.928 484.63 128.928C483.778 128.928 483.131 129.188 482.689 129.709C482.248 130.229 482.027 131.057 482.027 132.193C482.027 133.582 482.397 134.796 483.139 135.838C483.88 136.879 484.993 138.062 486.476 139.387C487.706 140.523 488.7 141.525 489.457 142.393C490.215 143.26 490.861 144.309 491.398 145.54C491.934 146.771 492.202 148.175 492.202 149.752C492.202 152.434 491.54 154.493 490.215 155.929C488.889 157.364 486.965 158.082 484.441 158.082C481.916 158.082 479.992 157.364 478.666 155.929C477.341 154.493 476.679 152.434 476.679 149.752V147.717H481.601V150.084C481.601 152.229 482.5 153.302 484.299 153.302C486.097 153.302 486.996 152.229 486.996 150.084C486.996 148.695 486.626 147.48 485.884 146.439C485.143 145.398 484.03 144.215 482.547 142.89C481.317 141.754 480.323 140.752 479.566 139.884C478.808 139.017 478.162 137.967 477.625 136.737C477.089 135.506 476.821 134.102 476.821 132.525ZM511.654 124.573V129.306H506.212V157.703H501.006V129.306H495.563V124.573H511.654ZM528.172 138.535V143.268H521.026V152.971H530.018V157.703H515.819V124.573H530.018V129.306H521.026V138.535H528.172ZM549.707 124.573H556.948V157.703H552.026V133.944L548.429 157.703H543.507L539.626 134.276V157.703H535.082V124.573H542.323L546.157 148.096L549.707 124.573ZM561.965 132.525C561.965 129.843 562.612 127.784 563.905 126.348C565.199 124.913 567.108 124.195 569.632 124.195C572.156 124.195 574.065 124.913 575.359 126.348C576.653 127.784 577.299 129.843 577.299 132.525V133.566H572.377V132.193C572.377 131.057 572.156 130.229 571.715 129.709C571.273 129.188 570.626 128.928 569.774 128.928C568.922 128.928 568.275 129.188 567.834 129.709C567.392 130.229 567.171 131.057 567.171 132.193C567.171 133.582 567.542 134.796 568.283 135.838C569.025 136.879 570.137 138.062 571.62 139.387C572.85 140.523 573.844 141.525 574.602 142.393C575.359 143.26 576.006 144.309 576.542 145.54C577.078 146.771 577.347 148.175 577.347 149.752C577.347 152.434 576.684 154.493 575.359 155.929C574.034 157.364 572.109 158.082 569.585 158.082C567.061 158.082 565.136 157.364 563.811 155.929C562.485 154.493 561.823 152.434 561.823 149.752V147.717H566.745V150.084C566.745 152.229 567.644 153.302 569.443 153.302C571.241 153.302 572.141 152.229 572.141 150.084C572.141 148.695 571.77 147.48 571.028 146.439C570.287 145.398 569.175 144.215 567.692 142.89C566.461 141.754 565.467 140.752 564.71 139.884C563.953 139.017 563.306 137.967 562.769 136.737C562.233 135.506 561.965 134.102 561.965 132.525Z" fill="url(#paint1_linear)"/>
<mask id="mask0" mask-type="alpha" maskUnits="userSpaceOnUse" x="2" y="1" width="589" height="282">
<path d="M2.19678 278.287H86.9811V165.068H2.19678V278.287ZM13.0844 21.2874H27.0184C28.0874 21.2874 28.853 21.8871 29.3148 23.0893L29.39 23.6813C29.39 24.6582 28.8451 25.3784 27.7579 25.8497C27.5556 25.9519 27.2856 26.0043 26.9431 26.0043H24.805C23.5285 26.0201 22.4827 27.0677 22.4983 28.3589V39.2777H22.5165V39.7857C22.5165 42.8946 23.1288 45.8567 24.2369 48.5568C25.3863 51.3567 27.0728 53.8815 29.1695 55.9977C31.266 58.1139 33.7675 59.8161 36.5439 60.979C39.2189 62.0974 42.1511 62.7129 45.2311 62.7129C48.3112 62.7129 51.2457 62.0974 53.921 60.979C56.6974 59.8161 59.1987 58.1139 61.2928 55.9977C63.3893 53.8815 65.0785 51.3567 66.228 48.5568C67.1413 46.3308 67.7175 43.9265 67.8912 41.4069C67.8938 41.3309 67.952 36.2445 67.9599 36.1711C68.4566 35.5117 69.2362 35.1847 70.2983 35.19C71.3602 35.1956 72.1207 35.5681 72.5797 36.3074C72.5932 36.4567 72.5983 41.2446 72.5878 41.4122C72.4062 44.5629 71.7004 47.5773 70.5586 50.3614C69.1679 53.7478 67.1336 56.7964 64.6088 59.3448C62.0842 61.8905 59.0664 63.9464 55.7088 65.3502C52.4783 66.6991 48.9391 67.4455 45.2311 67.4455C41.5233 67.4455 37.9839 66.6991 34.7535 65.3502C31.3983 63.9464 28.3807 61.8905 25.8559 59.3448C23.3313 56.7964 21.297 53.7478 19.9061 50.3614C18.6165 47.2186 17.8848 43.7849 17.8329 40.1891C17.8277 40.1316 17.8277 40.0686 17.8277 40.0057V28.4583C17.8251 28.4244 17.8277 29.0267 17.8277 28.3589C17.8277 27.6936 16.782 25.986 15.4924 26.0043H13.3128C12.2256 26.0043 11.4601 25.4543 11.0112 24.3569L10.9412 23.9039V23.5346C10.9412 22.5263 11.5042 21.7982 12.6433 21.3659L13.0844 21.2874ZM70.3273 33.385C69.5797 33.4006 68.7759 33.0877 67.9159 32.4464C67.9116 30.116 67.9094 28.7281 67.9094 28.283C67.9094 27.6151 66.8664 25.9075 65.5767 25.9284H63.3972C62.3098 25.9284 61.5445 25.3784 61.0956 24.281L61.0254 23.828V23.4586C61.0254 22.4503 61.5886 21.7223 62.7277 21.2874L63.1688 21.2115H77.1028C78.1718 21.2115 78.9346 21.8112 79.3964 23.0108L79.4718 23.6054C79.4718 24.5823 78.9295 25.3025 77.8423 25.7738C77.6398 25.876 77.3674 25.9284 77.0275 25.9284H74.8894C73.6127 25.9414 72.5671 26.9917 72.5827 28.283L72.5671 32.3795C71.8215 33.0344 71.0749 33.3697 70.3273 33.385ZM45.4517 21.2874C55.644 21.2874 63.9058 29.6266 63.9058 39.914C63.9058 50.2017 55.644 58.5406 45.4517 58.5406C35.2593 58.5406 26.9977 50.2017 26.9977 39.914C26.9977 29.6266 35.2593 21.2874 45.4517 21.2874ZM39.8443 30.2604H39.9689C42.0163 30.2604 43.8455 31.1115 45.449 32.8139C46.9463 31.1115 48.817 30.2604 51.0539 30.2604H51.1757C54.0247 30.2604 56.3186 31.7165 57.922 34.7022C58.4074 35.6057 58.5839 37.1065 58.5839 39.1388V46.954C58.5839 48.3553 58.2025 49.2484 57.3825 49.45L56.8997 49.5705H56.4146C55.6802 49.5705 55.1405 49.0597 54.7903 48.0489L54.728 46.954V37.6198C54.728 36.0773 53.8666 34.9666 52.1385 34.278C51.8243 34.1522 51.4455 34.0946 50.9916 34.0946C49.4944 34.0946 48.3733 34.8619 47.6182 36.4046C47.4159 36.8183 47.3198 37.3867 47.3198 38.1069V47.8682C47.3198 49.0284 46.4715 49.5705 45.5113 49.5705H45.2078C44.092 49.5705 43.6872 48.7533 43.5834 47.9309L43.5211 47.4413V37.8633C43.5211 36.1086 42.7246 34.4377 40.8121 34.2151L39.7898 34.0946C38.0825 34.0946 36.8941 35.0244 36.2297 36.8917L36.113 37.9262V47.6245C36.113 48.9367 35.3477 49.5705 34.4265 49.5705H34.1228C33.0901 49.5705 32.3196 48.9315 32.3196 47.6245V37.8633C32.3196 34.854 33.731 32.5442 36.5957 30.991C37.535 30.483 38.6327 30.2604 39.8443 30.2604ZM2.19678 119.022H86.9811V7.08176H2.19678V119.022ZM96.2599 278.287L105.259 165.068H184.083L176.825 278.287H96.2599ZM108.917 119.022L114.397 50.0812C114.397 35.8913 120.303 24.323 132.114 15.3841C143.926 6.44272 157.141 1.97202 171.763 1.97202C184.7 1.97202 196.159 5.44748 206.14 12.4037C216.126 19.3572 222.522 29.7889 225.334 43.696L243.187 119.022H108.917ZM249.943 119.022L270.888 37.7349C273.42 27.5155 280.099 19.2132 290.925 12.828C301.754 6.44272 313.491 3.25011 326.146 3.25011C341.05 3.25011 353.705 7.36463 364.107 15.5963C376.482 25.2475 382.668 38.7277 382.668 56.0421L387.809 119.022H249.943ZM391.566 165.068L400.807 278.287H318.978L312.628 165.068H391.566ZM299.445 165.068L276.794 259.978C275.388 267.074 272.014 272.54 266.671 276.37C261.329 280.204 255.283 282.118 248.535 282.118C242.064 282.118 236.369 280.556 231.451 277.435C226.529 274.313 223.506 269.486 222.382 262.96L198.063 165.068H299.445ZM413.039 278.287V199.522H472.516C478.982 199.522 484.677 198.528 489.599 196.541C494.52 194.555 496.981 191.575 496.981 187.602C496.981 185.897 496.699 184.477 496.135 183.343C494.449 179.653 491.636 176.673 487.7 174.402C483.224 171.188 478.99 168.08 474.997 165.068H581.916C587.718 175.319 590.62 185.81 590.62 196.541V205.909C590.62 229.181 580.64 247.49 560.673 260.83C543.239 272.467 522.008 278.287 496.981 278.287H413.039ZM426.978 119.022C417.685 104.853 413.039 89.9614 413.039 74.3492L412.197 71.3689C412.197 47.8104 423.446 30.3546 445.943 19.001C461.969 11.0549 479.968 7.08176 499.931 7.08176H581.762V80.3102H525.242C518.776 80.3102 513.571 81.3028 509.633 83.2906C505.697 85.2786 503.731 87.6906 503.731 90.5271C503.731 93.6516 506.823 97.4833 513.009 102.025C521.243 108.41 528.509 114.075 534.82 119.022H426.978Z" fill="url(#paint2_linear)"/>
<path d="M2.19678 278.287H86.9811V165.068H2.19678V278.287ZM13.0844 21.2874H27.0184C28.0874 21.2874 28.853 21.8871 29.3148 23.0893L29.39 23.6813C29.39 24.6582 28.8451 25.3784 27.7579 25.8497C27.5556 25.9519 27.2856 26.0043 26.9431 26.0043H24.805C23.5285 26.0201 22.4827 27.0677 22.4983 28.3589V39.2777H22.5165V39.7857C22.5165 42.8946 23.1288 45.8567 24.2369 48.5568C25.3863 51.3567 27.0728 53.8815 29.1695 55.9977C31.266 58.1139 33.7675 59.8161 36.5439 60.979C39.2189 62.0974 42.1511 62.7129 45.2311 62.7129C48.3112 62.7129 51.2457 62.0974 53.921 60.979C56.6974 59.8161 59.1987 58.1139 61.2928 55.9977C63.3893 53.8815 65.0785 51.3567 66.228 48.5568C67.1413 46.3308 67.7175 43.9265 67.8912 41.4069C67.8938 41.3309 67.952 36.2445 67.9599 36.1711C68.4566 35.5117 69.2362 35.1847 70.2983 35.19C71.3602 35.1956 72.1207 35.5681 72.5797 36.3074C72.5932 36.4567 72.5983 41.2446 72.5878 41.4122C72.4062 44.5629 71.7004 47.5773 70.5586 50.3614C69.1679 53.7478 67.1336 56.7964 64.6088 59.3448C62.0842 61.8905 59.0664 63.9464 55.7088 65.3502C52.4783 66.6991 48.9391 67.4455 45.2311 67.4455C41.5233 67.4455 37.9839 66.6991 34.7535 65.3502C31.3983 63.9464 28.3807 61.8905 25.8559 59.3448C23.3313 56.7964 21.297 53.7478 19.9061 50.3614C18.6165 47.2186 17.8848 43.7849 17.8329 40.1891C17.8277 40.1316 17.8277 40.0686 17.8277 40.0057V28.4583C17.8251 28.4244 17.8277 29.0267 17.8277 28.3589C17.8277 27.6936 16.782 25.986 15.4924 26.0043H13.3128C12.2256 26.0043 11.4601 25.4543 11.0112 24.3569L10.9412 23.9039V23.5346C10.9412 22.5263 11.5042 21.7982 12.6433 21.3659L13.0844 21.2874ZM70.3273 33.385C69.5797 33.4006 68.7759 33.0877 67.9159 32.4464C67.9116 30.116 67.9094 28.7281 67.9094 28.283C67.9094 27.6151 66.8664 25.9075 65.5767 25.9284H63.3972C62.3098 25.9284 61.5445 25.3784 61.0956 24.281L61.0254 23.828V23.4586C61.0254 22.4503 61.5886 21.7223 62.7277 21.2874L63.1688 21.2115H77.1028C78.1718 21.2115 78.9346 21.8112 79.3964 23.0108L79.4718 23.6054C79.4718 24.5823 78.9295 25.3025 77.8423 25.7738C77.6398 25.876 77.3674 25.9284 77.0275 25.9284H74.8894C73.6127 25.9414 72.5671 26.9917 72.5827 28.283L72.5671 32.3795C71.8215 33.0344 71.0749 33.3697 70.3273 33.385ZM45.4517 21.2874C55.644 21.2874 63.9058 29.6266 63.9058 39.914C63.9058 50.2017 55.644 58.5406 45.4517 58.5406C35.2593 58.5406 26.9977 50.2017 26.9977 39.914C26.9977 29.6266 35.2593 21.2874 45.4517 21.2874ZM39.8443 30.2604H39.9689C42.0163 30.2604 43.8455 31.1115 45.449 32.8139C46.9463 31.1115 48.817 30.2604 51.0539 30.2604H51.1757C54.0247 30.2604 56.3186 31.7165 57.922 34.7022C58.4074 35.6057 58.5839 37.1065 58.5839 39.1388V46.954C58.5839 48.3553 58.2025 49.2484 57.3825 49.45L56.8997 49.5705H56.4146C55.6802 49.5705 55.1405 49.0597 54.7903 48.0489L54.728 46.954V37.6198C54.728 36.0773 53.8666 34.9666 52.1385 34.278C51.8243 34.1522 51.4455 34.0946 50.9916 34.0946C49.4944 34.0946 48.3733 34.8619 47.6182 36.4046C47.4159 36.8183 47.3198 37.3867 47.3198 38.1069V47.8682C47.3198 49.0284 46.4715 49.5705 45.5113 49.5705H45.2078C44.092 49.5705 43.6872 48.7533 43.5834 47.9309L43.5211 47.4413V37.8633C43.5211 36.1086 42.7246 34.4377 40.8121 34.2151L39.7898 34.0946C38.0825 34.0946 36.8941 35.0244 36.2297 36.8917L36.113 37.9262V47.6245C36.113 48.9367 35.3477 49.5705 34.4265 49.5705H34.1228C33.0901 49.5705 32.3196 48.9315 32.3196 47.6245V37.8633C32.3196 34.854 33.731 32.5442 36.5957 30.991C37.535 30.483 38.6327 30.2604 39.8443 30.2604ZM2.19678 119.022H86.9811V7.08176H2.19678V119.022ZM96.2599 278.287L105.259 165.068H184.083L176.825 278.287H96.2599ZM108.917 119.022L114.397 50.0812C114.397 35.8913 120.303 24.323 132.114 15.3841C143.926 6.44272 157.141 1.97202 171.763 1.97202C184.7 1.97202 196.159 5.44748 206.14 12.4037C216.126 19.3572 222.522 29.7889 225.334 43.696L243.187 119.022H108.917ZM249.943 119.022L270.888 37.7349C273.42 27.5155 280.099 19.2132 290.925 12.828C301.754 6.44272 313.491 3.25011 326.146 3.25011C341.05 3.25011 353.705 7.36463 364.107 15.5963C376.482 25.2475 382.668 38.7277 382.668 56.0421L387.809 119.022H249.943ZM391.566 165.068L400.807 278.287H318.978L312.628 165.068H391.566ZM299.445 165.068L276.794 259.978C275.388 267.074 272.014 272.54 266.671 276.37C261.329 280.204 255.283 282.118 248.535 282.118C242.064 282.118 236.369 280.556 231.451 277.435C226.529 274.313 223.506 269.486 222.382 262.96L198.063 165.068H299.445ZM413.039 278.287V199.522H472.516C478.982 199.522 484.677 198.528 489.599 196.541C494.52 194.555 496.981 191.575 496.981 187.602C496.981 185.897 496.699 184.477 496.135 183.343C494.449 179.653 491.636 176.673 487.7 174.402C483.224 171.188 478.99 168.08 474.997 165.068H581.916C587.718 175.319 590.62 185.81 590.62 196.541V205.909C590.62 229.181 580.64 247.49 560.673 260.83C543.239 272.467 522.008 278.287 496.981 278.287H413.039ZM426.978 119.022C417.685 104.853 413.039 89.9614 413.039 74.3492L412.197 71.3689C412.197 47.8104 423.446 30.3546 445.943 19.001C461.969 11.0549 479.968 7.08176 499.931 7.08176H581.762V80.3102H525.242C518.776 80.3102 513.571 81.3028 509.633 83.2906C505.697 85.2786 503.731 87.6906 503.731 90.5271C503.731 93.6516 506.823 97.4833 513.009 102.025C521.243 108.41 528.509 114.075 534.82 119.022H426.978Z" fill="url(#paint3_linear)"/>
</mask>
<g mask="url(#mask0)">
<path fill-rule="evenodd" clip-rule="evenodd" d="M2.19678 282.118H590.62V1.97202H2.19678V282.118Z" fill="url(#paint4_linear)"/>
<path fill-rule="evenodd" clip-rule="evenodd" d="M2.19678 282.118H590.62V1.97202H2.19678V282.118Z" fill="url(#paint5_linear)"/>
</g>
</g>
<defs>
<linearGradient id="paint0_linear" x1="289.659" y1="124.195" x2="289.659" y2="158.082" gradientUnits="userSpaceOnUse">
<stop stop-color="#009FFD"/>
<stop offset="1" stop-color="white" stop-opacity="0"/>
</linearGradient>
<linearGradient id="paint1_linear" x1="289.659" y1="124.195" x2="289.659" y2="158.082" gradientUnits="userSpaceOnUse">
<stop offset="0.09375" stop-color="#2A2A72"/>
<stop offset="0.463542" stop-color="#009FFD"/>
<stop offset="0.604167" stop-color="#009FFD"/>
<stop offset="0.953125" stop-color="#2A2A72"/>
</linearGradient>
<linearGradient id="paint2_linear" x1="296.409" y1="1.97202" x2="296.409" y2="282.118" gradientUnits="userSpaceOnUse">
<stop stop-color="#009FFD"/>
<stop offset="1" stop-color="white" stop-opacity="0"/>
</linearGradient>
<linearGradient id="paint3_linear" x1="296.409" y1="1.97202" x2="296.409" y2="282.118" gradientUnits="userSpaceOnUse">
<stop offset="0.09375" stop-color="#2A2A72"/>
<stop offset="0.463542" stop-color="#009FFD"/>
<stop offset="0.604167" stop-color="#009FFD"/>
<stop offset="0.953125" stop-color="#2A2A72"/>
</linearGradient>
<linearGradient id="paint4_linear" x1="296.409" y1="1.97202" x2="296.409" y2="282.118" gradientUnits="userSpaceOnUse">
<stop stop-color="#009FFD"/>
<stop offset="1" stop-color="white" stop-opacity="0"/>
</linearGradient>
<linearGradient id="paint5_linear" x1="296.409" y1="1.97202" x2="296.409" y2="282.118" gradientUnits="userSpaceOnUse">
<stop offset="0.09375" stop-color="#2A2A72"/>
<stop offset="0.463542" stop-color="#009FFD"/>
<stop offset="0.604167" stop-color="#009FFD"/>
<stop offset="0.953125" stop-color="#2A2A72"/>
</linearGradient>
<clipPath id="clip0">
<rect width="589.636" height="282" fill="white"/>
</clipPath>
</defs>
</svg>
