<svg width="30" height="30" viewBox="0 0 30 30" fill="none" xmlns="http://www.w3.org/2000/svg">
<path fill-rule="evenodd" clip-rule="evenodd" d="M25.7374 0.00540813C25.9211 0.00346222 26.0978 0.0756774 26.2277 0.205621L29.7563 3.72752C29.8858 3.85638 29.9585 4.03173 29.9585 4.21443C29.9585 4.39691 29.8858 4.57204 29.7563 4.70134L19.8609 14.5972C19.856 14.6066 19.8478 14.6128 19.841 14.618C19.8379 14.6204 19.8351 14.6225 19.833 14.6247C19.833 14.6292 19.8303 14.6308 19.8265 14.6332L19.8236 14.635C19.8229 14.6355 19.8222 14.636 19.8215 14.6365C19.8207 14.6371 19.8199 14.6378 19.8192 14.6385C19.8085 14.6455 19.7978 14.6544 19.7872 14.6633L19.7872 14.6633C19.7771 14.6716 19.7671 14.68 19.7571 14.6867C19.7463 14.694 19.7337 14.7012 19.7212 14.7084L19.7212 14.7084C19.7096 14.7151 19.698 14.7217 19.6881 14.7282C19.6845 14.7321 19.6795 14.7345 19.6741 14.7354C19.6551 14.7472 19.6339 14.7565 19.612 14.7628C19.608 14.7668 19.6063 14.7685 19.6043 14.7692C19.6029 14.7697 19.6012 14.7697 19.5984 14.7697L14.3016 16.5375C14.2301 16.5591 14.1555 16.5706 14.0804 16.5721C13.8971 16.5725 13.7209 16.5005 13.5905 16.3719C13.4043 16.1885 13.3401 15.9146 13.4245 15.6675L15.1855 10.3568C15.1855 10.3535 15.1872 10.3518 15.1889 10.3501C15.1907 10.3484 15.1924 10.3467 15.1924 10.3432C15.1958 10.3333 15.1991 10.325 15.2024 10.3167C15.206 10.3076 15.2096 10.2987 15.2132 10.2879C15.2165 10.2846 15.2181 10.2812 15.2198 10.2778C15.2216 10.2742 15.2234 10.2706 15.227 10.2671C15.2336 10.2572 15.2386 10.2489 15.2436 10.2406L15.2436 10.2405C15.249 10.2316 15.2544 10.2226 15.2616 10.212C15.2616 10.2085 15.2633 10.2068 15.2651 10.205C15.2668 10.2033 15.2685 10.2016 15.2685 10.1981C15.2753 10.1882 15.2836 10.1781 15.292 10.1681L15.292 10.1681C15.3009 10.1574 15.3097 10.1467 15.3168 10.1361L15.3306 10.1222L15.358 10.0943L25.2472 0.205621C25.3789 0.0782719 25.5542 0.00670543 25.7374 0.00540813ZM18.0998 13.8167L16.1455 11.8623L15.1717 14.7903L18.0998 13.8167ZM19.3775 13.1399L16.8222 10.5849L25.7374 1.6696L28.2924 4.22459L19.3775 13.1399ZM23.9073 13.6026C23.9084 13.2217 24.2169 12.9131 24.5979 12.912C24.9789 12.9131 25.2874 13.2217 25.2885 13.6026V26.5095C25.2879 28.416 23.7424 29.9615 21.8356 29.9622H3.45292C1.54614 29.9615 0.000864852 28.416 0 26.5095V8.12637C0.000864852 6.2198 1.54614 4.67431 3.45292 4.67345H16.3593C16.7409 4.67345 17.0499 4.98263 17.0499 5.36403C17.0499 5.74543 16.7409 6.05462 16.3593 6.05462H3.45292C2.31024 6.05808 1.38441 6.98369 1.38117 8.12637V26.5095C1.38441 27.6521 2.31024 28.5775 3.45292 28.5812H21.8356C22.9787 28.5775 23.9041 27.6521 23.9073 26.5095V13.6026Z" fill="#009FFD"/>
</svg>
