<svg width="966" height="936" viewBox="0 0 966 936" fill="none" xmlns="http://www.w3.org/2000/svg">
<path d="M77.9017 841.606H483V810.439H77.9017C52.0881 810.439 31.1599 789.51 31.1599 763.697V78.148C31.1599 52.3266 52.0881 31.4062 77.9017 31.4062H763.45C789.276 31.4062 810.192 52.3266 810.192 78.148V436.5H841.36V78.148C841.309 35.1435 806.459 0.297106 763.45 0.246338H77.9017C34.905 0.297106 0.0546733 35.1435 0 78.148V763.697C0.0546733 806.701 34.905 841.548 77.9017 841.606Z" fill="#4695D5"/>
<path d="M62.3276 62.5739H93.4836V93.7299H62.3276V62.5739Z" fill="#4695D5"/>
<path d="M124.643 62.5739H155.811V93.7299H124.643V62.5739Z" fill="#4695D5"/>
<path d="M186.967 62.5739H218.131V93.7299H186.967V62.5739Z" fill="#4695D5"/>
<path d="M62.3276 124.89H779.032V156.057H62.3276V124.89Z" fill="#4695D5"/>
<path d="M222.696 191.779L183.121 231.354C149.668 209.208 104.871 216.003 79.4833 247.073C54.0993 278.139 56.376 323.393 84.7437 351.757C113.107 380.132 158.365 382.409 189.435 357.021C220.501 331.637 227.3 286.832 205.15 253.388L244.722 213.812L222.696 191.779ZM140.221 343.017C114.412 343.017 93.4836 322.093 93.4836 296.279C93.4836 270.461 114.412 249.541 140.221 249.541C147.173 249.564 154.011 251.158 160.248 254.208L129.213 285.247L151.238 307.28L182.297 276.261C185.346 282.493 186.944 289.332 186.967 296.279C186.967 322.093 166.047 343.017 140.221 343.017Z" fill="#4695D5"/>
<path d="M264.873 249.541H529.738V280.697H264.873V249.541Z" fill="#4695D5"/>
<path d="M264.873 311.861H373.934V343.017H264.873V311.861Z" fill="#4695D5"/>
<path d="M405.098 311.861H623.221V343.017H405.098V311.861Z" fill="#4695D5"/>
<path d="M560.901 249.541H716.709V280.697H560.901V249.541Z" fill="#4695D5"/>
<path d="M222.696 378.746L183.121 418.322C149.668 396.175 104.871 402.97 79.4833 434.04C54.0993 465.11 56.376 510.36 84.7437 538.732C113.107 567.099 158.365 569.376 189.435 543.988C220.501 518.6 227.3 473.811 205.15 440.355L244.722 400.779L222.696 378.746ZM140.221 529.988C114.412 529.988 93.4836 509.06 93.4836 483.246C93.4836 457.429 114.412 436.5 140.221 436.5C147.173 436.528 154.011 438.125 160.248 441.175L129.213 472.222L151.238 494.247L182.297 463.224C185.346 469.461 186.944 476.299 186.967 483.246C186.967 509.06 166.047 529.988 140.221 529.988Z" fill="#4695D5"/>
<path d="M264.873 436.5H529.738V467.664H264.873V436.5Z" fill="#4695D5"/>
<path d="M264.873 498.828H373.934V529.988H264.873V498.828Z" fill="#4695D5"/>
<path d="M405.098 498.828H529.738V529.988H405.098V498.828Z" fill="#4695D5"/>
<path d="M560.901 436.5H623.221V467.664H560.901V436.5Z" fill="#4695D5"/>
<path d="M222.696 565.713L183.121 605.289C149.668 583.142 104.871 589.937 79.4833 621.007C54.0993 652.077 56.376 697.327 84.7437 725.699C113.107 754.07 158.365 756.339 189.435 730.955C220.501 705.567 227.3 660.774 205.15 627.318L244.722 587.746L222.696 565.713ZM140.221 716.955C114.412 716.955 93.4836 696.027 93.4836 670.213C93.4836 644.396 114.412 623.471 140.221 623.471C147.173 623.495 154.011 625.088 160.248 628.142L129.213 659.189L151.238 681.214L182.297 650.191C185.346 656.428 186.944 663.27 186.967 670.213C186.967 696.027 166.047 716.955 140.221 716.955Z" fill="#4695D5"/>
<path d="M264.873 623.471H467.418V654.639H264.873V623.471Z" fill="#4695D5"/>
<path d="M264.873 685.795H373.934V716.955H264.873V685.795Z" fill="#4695D5"/>
<path d="M405.098 685.795H467.418V716.955H405.098V685.795Z" fill="#4695D5"/>
<path d="M732.295 935.09C861.374 935.09 966 830.445 966 701.377C966 572.297 861.374 467.664 732.295 467.664C603.215 467.664 498.582 572.297 498.582 701.377C498.734 830.387 603.277 934.934 732.295 935.09ZM732.295 498.828C844.152 498.828 934.844 589.511 934.844 701.377C934.844 813.243 844.152 903.922 732.295 903.922C620.425 903.922 529.738 813.243 529.738 701.377C529.87 589.566 620.476 498.953 732.295 498.828Z" fill="#4695D5"/>
<path d="M637.253 709.988L609.362 723.914L640.525 786.238C642.759 790.721 647.024 793.857 651.972 794.658C652.776 794.782 653.581 794.849 654.389 794.861C658.517 794.861 662.481 793.216 665.409 790.295L852.369 603.328L830.343 581.295L658.653 752.977L637.253 709.988Z" fill="#4695D5"/>
</svg>
