<svg width="30" height="30" viewBox="0 0 30 30" fill="none" xmlns="http://www.w3.org/2000/svg">
<path fill-rule="evenodd" clip-rule="evenodd" d="M30 15C30 6.72927 23.2707 0 15 0C6.72927 0 0 6.72927 0 15C0 19.3685 1.87855 23.3062 4.86873 26.0498L4.85455 26.0624L5.34109 26.4725C5.35756 26.4865 5.37477 26.499 5.39194 26.5116C5.40777 26.5232 5.42356 26.5347 5.43873 26.5473C5.69727 26.7616 5.96509 26.9651 6.23782 27.162C6.32618 27.2258 6.41455 27.2896 6.50455 27.3518C6.79582 27.5525 7.09473 27.7429 7.40018 27.9235C7.46673 27.9627 7.53382 28.0009 7.60091 28.0391C7.93527 28.2295 8.27673 28.4089 8.62636 28.5736C8.63918 28.5796 8.65214 28.5854 8.66509 28.5911C8.67805 28.5968 8.691 28.6025 8.70382 28.6085C9.84327 29.1382 11.0596 29.5271 12.3316 29.7567L12.432 29.7747C12.8269 29.8429 13.2262 29.8975 13.6304 29.934C13.6552 29.9362 13.68 29.938 13.705 29.9398C13.7293 29.9415 13.7537 29.9433 13.7782 29.9455C14.1807 29.9787 14.5876 30 15 30C15.4085 30 15.8116 29.9787 16.212 29.9465C16.2374 29.9444 16.2627 29.9426 16.2881 29.9408L16.2884 29.9408C16.3137 29.939 16.3389 29.9373 16.3642 29.9351C16.7651 29.8985 17.1611 29.8456 17.5522 29.7785L17.5657 29.7761C17.5952 29.7709 17.6249 29.7657 17.6542 29.76C18.9071 29.5353 20.106 29.1551 21.2307 28.6391C21.2478 28.6312 21.265 28.6235 21.2822 28.6159L21.2826 28.6157C21.307 28.6048 21.3314 28.5938 21.3556 28.5824C21.6922 28.4242 22.0211 28.2535 22.3435 28.0718C22.4236 28.0265 22.5033 27.9807 22.5829 27.9338C22.8764 27.7609 23.1649 27.5804 23.4453 27.3884C23.5262 27.3333 23.6057 27.2757 23.6855 27.2179L23.6856 27.2179L23.7447 27.1751C23.9842 27.0027 24.2193 26.8249 24.4478 26.6389C24.4706 26.6206 24.4941 26.6033 24.5176 26.5861C24.5465 26.5649 24.5754 26.5437 24.6027 26.5205L25.1018 26.1038L25.0871 26.0913C28.1035 23.3465 30 19.3909 30 15ZM1.09091 15C1.09091 7.33036 7.33036 1.09091 15 1.09091C22.6696 1.09091 28.9091 7.33036 28.9091 15C28.9091 19.1329 27.0955 22.8485 24.2242 25.398C24.0638 25.2873 23.9024 25.188 23.7371 25.1051L19.1187 22.7962C18.7042 22.5889 18.4467 22.1722 18.4467 21.7091V20.0962C18.5536 19.9642 18.6665 19.8147 18.7833 19.6505C19.3811 18.8062 19.8605 17.8669 20.2102 16.8562C20.9013 16.5278 21.3475 15.8395 21.3475 15.0622V13.1285C21.3475 12.6556 21.174 12.1969 20.8636 11.8364V9.29073C20.892 9.00764 20.9924 7.41 19.8365 6.09218C18.8313 4.94455 17.2042 4.36364 15 4.36364C12.7958 4.36364 11.1687 4.94455 10.1635 6.09164C9.00764 7.40945 9.108 9.00709 9.13636 9.29018V11.8358C8.82655 12.1964 8.65255 12.6551 8.65255 13.128V15.0616C8.65255 15.6622 8.922 16.2224 9.38345 16.6004C9.82527 18.3311 10.7345 19.6413 11.0705 20.0853V21.6638C11.0705 22.1089 10.8278 22.518 10.4367 22.7318L6.12382 25.0844C5.98636 25.1591 5.85 25.2464 5.71364 25.344C2.87782 22.7956 1.09091 19.1029 1.09091 15ZM22.5775 26.6547C22.7744 26.5265 22.9685 26.3924 23.1595 26.2538C23.1802 26.2388 23.2011 26.2241 23.222 26.2093C23.2604 26.1821 23.2989 26.1548 23.3367 26.1262C23.3078 26.1109 23.2789 26.0956 23.2495 26.0809L18.6311 23.772C17.8445 23.3793 17.3558 22.5884 17.3558 21.7091V19.6915L17.4911 19.5371C17.6105 19.4002 17.7496 19.2213 17.8925 19.0195C18.474 18.198 18.9322 17.2745 19.254 16.2747L19.3413 16.0047L19.6124 15.9213C19.992 15.804 20.2565 15.4511 20.2565 15.0622V13.1285C20.2565 12.8749 20.1485 12.6382 19.9527 12.4615L19.7727 12.2989L19.7776 9.18927L19.7777 9.18872C19.7812 9.15607 19.9221 7.8333 19.0069 6.79964C18.216 5.90727 16.8687 5.45455 15 5.45455C13.1242 5.45455 11.7725 5.91109 10.9838 6.81C10.0598 7.86327 10.2207 9.17509 10.2224 9.18818L10.2273 9.25964V12.2978L10.0473 12.4604C9.85091 12.6376 9.74345 12.8738 9.74345 13.1275V15.0611C9.74345 15.3671 9.90055 15.6507 10.1629 15.8204L10.3489 15.9409L10.3985 16.1569C10.8442 18.0993 12.0235 19.5338 12.0355 19.5475L12.1609 19.6991L12.1615 21.6638C12.1615 22.5087 11.7005 23.2849 10.9587 23.6896L6.64582 26.0422L6.59345 26.0716C6.60573 26.0809 6.61773 26.0905 6.62973 26.1C6.64173 26.1095 6.65373 26.1191 6.666 26.1284C6.90382 26.3067 7.14818 26.4753 7.39582 26.6373C7.47436 26.6885 7.55345 26.7393 7.63309 26.7895C7.902 26.9575 8.17473 27.1184 8.45345 27.2673C8.47763 27.2804 8.50221 27.2928 8.52683 27.3053C8.54221 27.3131 8.5576 27.3209 8.57291 27.3289C8.87836 27.4876 9.18764 27.6382 9.50291 27.774L9.51 27.7773C9.84327 27.9202 10.1825 28.0495 10.5256 28.1662C10.5363 28.1697 10.5471 28.1734 10.5579 28.1771C10.5686 28.1808 10.5794 28.1845 10.59 28.188C11.2811 28.4198 11.9907 28.5971 12.7118 28.7176L12.7576 28.7258C13.0985 28.7815 13.4427 28.8224 13.7885 28.8529C13.833 28.857 13.8777 28.8602 13.9226 28.8634C13.9372 28.8644 13.9518 28.8655 13.9664 28.8665C14.3095 28.8922 14.6542 28.9091 15 28.9091C15.342 28.9091 15.6824 28.8927 16.0211 28.8671C16.0356 28.8661 16.05 28.8651 16.0644 28.8641C16.1109 28.8608 16.1571 28.8576 16.2033 28.8535C16.5458 28.8235 16.8873 28.7836 17.226 28.7285C17.2324 28.7275 17.2388 28.7262 17.2453 28.7249C17.2487 28.7243 17.2521 28.7237 17.2555 28.7231C17.6155 28.6636 17.9733 28.5911 18.3267 28.5038C18.3278 28.5038 18.3289 28.5033 18.33 28.5033C18.6802 28.4165 19.0265 28.3156 19.3685 28.2022C19.3815 28.198 19.3942 28.1936 19.4069 28.1893C19.4172 28.1857 19.4275 28.1822 19.4378 28.1787C20.0907 27.9589 20.7262 27.6884 21.3404 27.3736C21.362 27.3625 21.3835 27.3516 21.4051 27.3407C21.4429 27.3215 21.4807 27.3023 21.5182 27.2825C21.7855 27.1407 22.0473 26.9891 22.3047 26.8298C22.3873 26.7785 22.4682 26.7258 22.5493 26.6731L22.5775 26.6547Z" fill="#009FFD"/>
</svg>
